<svg width="54" height="54" viewBox="0 0 54 54" fill="none" xmlns="http://www.w3.org/2000/svg">
<rect opacity="0.1" width="54" height="54" rx="5" fill="white"/>
<path d="M17.7756 26.5L17.7909 32.109L22.5568 34.9135V38.1972L15.0017 33.7662V24.8598L17.7756 26.5ZM17.7756 20.891V24.1595L15 22.5176V19.2491L17.7756 17.6072L20.5648 19.2491L17.7756 20.891ZM24.5471 19.2491L27.3227 17.6072L30.1119 19.2491L27.3227 20.891L24.5471 19.2491Z" fill="#F0B90B"/>
<path d="M19.7825 30.9464V27.6626L22.5581 29.3045V32.573L19.7825 30.9464ZM24.5484 36.0896L27.324 37.7315L30.1132 36.0896V39.3581L27.324 41L24.5484 39.3581V36.0896ZM34.0938 19.2491L36.8694 17.6072L39.6586 19.2491V22.5176L36.8694 24.1595V20.891L34.0938 19.2491ZM36.8694 32.109L36.8847 26.5L39.6603 24.8581V33.7645L32.1052 38.1956V34.9118L36.8694 32.109Z" fill="#F0B90B"/>
<path d="M34.8796 30.9463L32.104 32.5729V29.3044L34.8796 27.6625V30.9463Z" fill="#F0B90B"/>
<path d="M34.8791 22.0537L34.8944 25.3374L30.1149 28.1419V33.7645L27.3393 35.3911L24.5637 33.7645V28.1419L19.7842 25.3374V22.0537L22.5717 20.4118L27.3223 23.2298L32.1018 20.4118L34.891 22.0537H34.8791ZM19.7825 16.4464L27.324 12L34.8791 16.4464L32.1035 18.0883L27.324 15.2702L22.5581 18.0883L19.7825 16.4464Z" fill="#F0B90B"/>
</svg>
