<svg width="54" height="54" viewBox="0 0 54 54" fill="none" xmlns="http://www.w3.org/2000/svg">
<rect width="54" height="54" rx="5" fill="white"/>
<path d="M29.0326 31.2304C28.9451 31.2602 28.8952 31.184 28.8356 31.1489C25.9164 29.426 23.0004 27.7019 20.0876 25.9767C20.0594 25.9624 20.0301 25.9504 20 25.9408V25.9022L20.0517 25.8725C20.125 25.8532 20.1973 25.8298 20.268 25.8024L27.1471 22.6724C27.7602 22.393 28.3732 22.1181 28.9862 21.8413H29.03C29.03 21.9289 29.03 22.0068 29.03 22.09C29.0324 25.1371 29.0332 28.1839 29.0326 31.2304Z" fill="#393939"/>
<path d="M29.037 21.8435H28.9932C28.9932 21.7559 29.0019 21.6683 29.0019 21.5764C29.0019 18.1539 29.0019 14.7311 29.0019 11.308C28.9919 11.2201 28.9978 11.1311 29.0194 11.0453H29.0378C29.3978 11.5769 29.7113 12.1374 30.0423 12.6865C32.665 17.0367 35.2861 21.3863 37.9058 25.7354C37.9312 25.7783 37.9514 25.823 37.9741 25.8702C37.9 25.8544 37.8271 25.833 37.7561 25.8063C37.2753 25.5891 36.7927 25.3684 36.3163 25.1469C35.5702 24.8053 34.8237 24.4644 34.077 24.124L30.4793 22.4942C30.0003 22.2735 29.5186 22.0589 29.037 21.8435Z" fill="#343434"/>
<path d="M29.0224 11.0408C29.0007 11.1266 28.9948 11.2156 29.0048 11.3035C29.0048 14.726 29.0048 18.1488 29.0048 21.5718C29.0048 21.6594 28.9996 21.747 28.9961 21.839C28.383 22.1157 27.77 22.3907 27.157 22.6701L20.2778 25.8C20.2071 25.8275 20.1349 25.8508 20.0615 25.8701C20.2603 25.4567 20.5187 25.0819 20.7543 24.6861C23.4837 20.149 26.2152 15.6128 28.9488 11.0776C28.9669 11.0524 28.9865 11.0284 29.0075 11.0057L29.0224 11.0408Z" fill="#8C8C8C"/>
<path d="M29.0371 21.8435C29.5188 22.0589 30.0004 22.2735 30.4812 22.4907L34.0789 24.1205C34.8262 24.4603 35.5726 24.8013 36.3182 25.1434C36.7981 25.3632 37.2816 25.5857 37.758 25.8028C37.829 25.8296 37.9019 25.8509 37.976 25.8668C38.0636 25.9762 37.934 25.9806 37.8946 26.0043C37.1476 26.4509 36.397 26.8914 35.6483 27.3346C33.4991 28.6062 31.3506 29.8775 29.2026 31.1485C29.1483 31.18 29.0896 31.2037 29.0327 31.2308C29.0327 28.1849 29.0327 25.1387 29.0327 22.0922C29.0336 22.009 29.0362 21.9267 29.0371 21.8435Z" fill="#141414"/>
<path d="M29.0019 32.9606L34.6287 29.6441C35.703 29.01 36.7766 28.3754 37.8497 27.7402L37.947 27.6868C37.9566 27.7743 37.8962 27.8208 37.8594 27.8716C35.4072 31.3285 32.9551 34.7843 30.5029 38.2389C30.0388 38.8939 29.5755 39.5525 29.107 40.2023C29.0825 40.2365 29.0448 40.3968 28.9695 40.2269C29.029 40.1761 29.0028 40.1077 29.0028 40.0517C29.0033 37.6871 29.0031 35.3234 29.0019 32.9606Z" fill="#3D3D3C"/>
<path d="M29.0013 32.9611C29.0013 35.3239 29.0013 37.6861 29.0013 40.0478C29.0013 40.1082 29.0276 40.1765 28.968 40.2229C28.8428 40.1476 28.7885 40.0127 28.7053 39.9015C25.862 35.8964 23.0201 31.8906 20.1797 27.8843C20.1438 27.8335 20.1105 27.7792 20.0737 27.7231C20.1473 27.6802 20.1867 27.7389 20.2296 27.7643C23.105 29.4621 25.9799 31.1614 28.8542 32.8621C28.9076 32.8954 28.9531 32.9296 29.0013 32.9611Z" fill="#8C8C8C"/>
<path d="M29.023 11.0407L29.002 11.0083C29.0405 10.9838 29.0352 11.0197 29.0414 11.0381L29.023 11.0407Z" fill="#393939"/>
</svg>
