<svg width="739" height="94" viewBox="0 0 739 94" fill="none" xmlns="http://www.w3.org/2000/svg">
<line x1="474" y1="23.6084" x2="236" y2="23.6084" stroke="#003BD2"/>
<line x1="673" y1="92.6084" x2="435" y2="92.6084" stroke="#003BD2"/>
<line x1="561" y1="23.6084" x2="529" y2="23.6084" stroke="#003BD2"/>
<line x1="413" y1="92.6084" x2="344" y2="92.6084" stroke="#003BD2"/>
<line x1="185" y1="23.6084" x2="97" y2="23.6084" stroke="#003BD2"/>
<line x1="739" y1="46.6084" x2="250" y2="46.6084" stroke="#003BD2"/>
<line x1="489" y1="69.6084" y2="69.6084" stroke="#003BD2"/>
<path d="M197.481 4.1084L209.756 39.0204L185 57.1084L218.188 50.993L244 57.1084L197.481 4.1084Z" fill="url(#paint0_linear_62_1406)"/>
<path d="M490.25 0.108398L498.364 23.1635L482 35.1084L503.938 31.0699L521 35.1084L490.25 0.108398Z" fill="url(#paint1_linear_62_1406)"/>
<defs>
<linearGradient id="paint0_linear_62_1406" x1="185" y1="2.94361" x2="244.779" y2="3.81716" gradientUnits="userSpaceOnUse">
<stop stop-color="#003BD2"/>
<stop offset="1" stop-color="#00FFC2"/>
</linearGradient>
<linearGradient id="paint1_linear_62_1406" x1="482" y1="-0.660799" x2="521.515" y2="-0.0828116" gradientUnits="userSpaceOnUse">
<stop stop-color="#003BD2"/>
<stop offset="1" stop-color="#00FFC2"/>
</linearGradient>
</defs>
</svg>
