<svg width="106" height="33" viewBox="0 0 106 33" fill="none" xmlns="http://www.w3.org/2000/svg">
<path d="M12.2717 26.6745L12.0053 27.3722C11.5758 28.4691 11.2028 29.3303 10.8799 29.962C10.557 30.5937 10.1839 31.0683 9.75446 31.3826C9.32498 31.7001 8.79833 31.8981 8.17449 31.9829C7.54752 32.0678 6.72619 32.1086 5.70736 32.1086H3.21201V32.1212C1.64458 32.1212 0.650833 31.7503 0.240166 31.0055C-0.1705 30.2637 -0.0545101 29.0537 0.588136 27.3816L1.259 25.6813C1.34677 25.4204 1.43768 25.2602 1.52546 25.1942C1.61323 25.1281 1.78565 25.0967 2.0333 25.0967H5.06158C5.31237 25.0967 5.45343 25.1313 5.49105 25.1942C5.52554 25.2602 5.49105 25.4236 5.38447 25.6813L4.87662 27.0453C4.66032 27.5828 4.59448 27.9379 4.67599 28.1045C4.7575 28.2711 5.06471 28.356 5.60077 28.356H6.10862C6.66349 28.356 7.04594 28.2617 7.25911 28.0762C7.47542 27.8908 7.67918 27.5482 7.87668 27.0453L8.14314 26.4042C8.26854 26.071 8.17449 25.7725 7.861 25.5116C7.54752 25.2507 7.11491 24.9647 6.56004 24.6473C6.18386 24.4241 5.792 24.1727 5.38133 23.8961C4.97067 23.6164 4.6227 23.2738 4.33743 22.8652C4.05215 22.4566 3.87347 21.9695 3.80136 21.4038C3.72926 20.838 3.84525 20.156 4.14933 19.3545L4.4973 18.462C4.92678 17.3651 5.29983 16.507 5.62272 15.8847C5.94561 15.2624 6.31866 14.7878 6.74813 14.4641C7.17761 14.1404 7.70426 13.9361 8.3281 13.8512C8.95194 13.7664 9.7764 13.7255 10.7952 13.7255H12.5915C14.1621 13.7255 15.1558 14.0964 15.5665 14.8413C15.9772 15.583 15.8612 16.793 15.2185 18.462L14.6009 20.0491C14.4944 20.31 14.4003 20.4734 14.3188 20.5363C14.2373 20.6023 14.0743 20.6337 13.8235 20.6337H10.767C10.5162 20.6337 10.372 20.6023 10.3375 20.5363C10.2999 20.4703 10.3375 20.31 10.4441 20.0491L10.9269 18.7668C11.1432 18.2294 11.2216 17.8742 11.1683 17.7076C11.115 17.5411 10.883 17.4562 10.4723 17.4562H10.1244C9.71371 17.4562 9.41589 17.5411 9.2278 17.7076C9.03971 17.8742 8.83908 18.2294 8.62591 18.7668L8.41274 19.3514C8.25286 19.7411 8.27794 20.0806 8.49425 20.3666C8.70742 20.6557 9.19959 20.992 9.96763 21.3818C10.3783 21.586 10.7952 21.8186 11.2153 22.0795C11.6354 22.3404 11.9802 22.6641 12.2467 23.0538C12.5131 23.4435 12.6699 23.9307 12.7138 24.5153C12.7577 25.0999 12.6103 25.8196 12.2717 26.6745ZM27.2626 17.8679C26.8614 17.1545 25.9366 16.7962 24.4883 16.7962H22.0494L23.7108 12.5061C23.8018 12.2829 23.8268 12.1446 23.7924 12.088C23.7579 12.0315 23.6419 12.0032 23.4444 12.0032H20.3346C20.1214 12.0032 19.9772 12.0315 19.9051 12.088C19.833 12.1446 19.7515 12.2829 19.6637 12.5061L12.2937 31.4801C12.2028 31.7032 12.1746 31.8415 12.2122 31.8981C12.2467 31.9546 12.3627 31.9829 12.5602 31.9829H15.6699C15.8831 31.9829 16.0273 31.9546 16.0994 31.8981C16.1715 31.8415 16.253 31.7032 16.3408 31.4801V31.4738L20.8205 19.9674H22.1873C22.7234 19.9674 23.0306 20.0429 23.1121 20.1906C23.1936 20.3414 23.1278 20.7029 22.9115 21.278L18.8894 31.6152C18.7828 31.8572 18.8455 31.9766 19.0775 31.9766H22.4538C22.6701 31.9766 22.8299 31.8572 22.9365 31.6152L26.9554 21.2529C27.5604 19.7128 27.6639 18.5845 27.2626 17.8679ZM50.586 24.9867L52.0343 21.2529C52.6236 19.7128 52.7208 18.5845 52.329 17.8679C51.9371 17.1545 51.0186 16.7962 49.5703 16.7962H44.1564C43.9432 16.7962 43.799 16.8245 43.7269 16.881C43.6548 16.9376 43.5764 17.0759 43.4855 17.2991L37.965 31.4801C37.8741 31.7032 37.8459 31.8415 37.8835 31.8981C37.9212 31.9546 38.0465 31.9829 38.2597 31.9829H41.3413C41.5576 31.9829 41.6987 31.9546 41.7708 31.8981C41.8429 31.8415 41.9212 31.7032 42.0121 31.4801H42.009L46.4856 19.9706H47.2379C47.7897 19.9706 48.0624 20.0177 48.1878 20.1937C48.3163 20.376 48.1878 20.706 47.959 21.2812L46.5389 24.9867C46.4323 25.2287 46.495 25.3482 46.727 25.3482H50.1032C50.3195 25.3482 50.4794 25.2287 50.586 24.9867ZM61.0376 24.0407L66.8527 17.2425C67.0471 17.0193 67.138 16.8905 67.1192 16.8528C67.1035 16.815 66.9875 16.7962 66.7712 16.7962H63.232C63.0188 16.7962 62.8715 16.815 62.79 16.8528C62.7085 16.8905 62.5674 17.0193 62.373 17.2425L57.0406 23.5944L61.3542 12.5061C61.4451 12.2829 61.4702 12.1446 61.4357 12.088C61.3981 12.0315 61.2852 12.0032 61.0877 12.0032H57.978C57.7648 12.0032 57.6206 12.0315 57.5485 12.088C57.4764 12.1446 57.398 12.2829 57.3071 12.5061L49.9371 31.4801C49.8461 31.7032 49.8179 31.8415 49.8555 31.8981C49.89 31.9546 50.006 31.9829 50.2035 31.9829H53.3133C53.5296 31.9829 53.6707 31.9546 53.7428 31.8981C53.8149 31.8415 53.8964 31.7032 53.9842 31.4801L56.6927 24.5121L57.0689 31.5335C57.0689 31.7566 57.0971 31.8855 57.1504 31.9232C57.2037 31.9609 57.3479 31.9798 57.5798 31.9798H61.0909C61.3041 31.9798 61.4389 31.9609 61.4921 31.9232C61.5454 31.8855 61.5548 31.7566 61.5204 31.5335L61.0376 24.0407ZM77.7276 17.8679C77.3326 17.1545 76.4141 16.7962 74.9658 16.7962H69.5519C69.3387 16.7962 69.1945 16.8245 69.1224 16.881C69.0503 16.9376 68.9719 17.0759 68.881 17.2991L63.3605 31.4801C63.2696 31.7032 63.2414 31.8415 63.279 31.8981C63.3166 31.9546 63.442 31.9829 63.6552 31.9829H66.7368C66.9531 31.9829 67.0941 31.9546 67.1662 31.8981C67.2383 31.8415 67.3198 31.7032 67.4076 31.4801H67.4045L71.8811 19.9706H72.6334C73.1883 19.9706 73.5049 20.046 73.5864 20.1937C73.6679 20.3446 73.5896 20.706 73.3576 21.2812L71.9375 24.9867C71.8309 25.2287 71.8936 25.3482 72.1256 25.3482H75.5018C75.7181 25.3482 75.878 25.2287 75.9846 24.9867L77.4329 21.2529C78.0222 19.7128 78.1194 18.5845 77.7276 17.8679ZM99.9819 12.0912C99.9474 12.0346 99.8315 12.0063 99.634 12.0063H96.5242C96.3079 12.0063 96.1668 12.0346 96.0947 12.0912C96.0226 12.1478 95.9411 12.2861 95.8533 12.5092L88.4833 31.4832C88.3924 31.7063 88.3641 31.8446 88.4018 31.9012C88.4362 31.9578 88.5522 31.9861 88.7497 31.9861H91.8595C92.0727 31.9861 92.2169 31.9578 92.289 31.9012C92.3611 31.8446 92.4426 31.7063 92.5304 31.4832L99.9004 12.5092C99.9913 12.2861 100.016 12.1478 99.9819 12.0912ZM105.985 12.0912C105.948 12.0346 105.835 12.0063 105.637 12.0063H102.527C102.314 12.0063 102.17 12.0346 102.098 12.0912C102.026 12.1478 101.947 12.2861 101.857 12.5092L94.4865 31.4832C94.3956 31.7063 94.3674 31.8446 94.405 31.9012C94.4395 31.9578 94.5555 31.9861 94.753 31.9861H97.8628C98.0759 31.9861 98.2201 31.9578 98.2922 31.9012C98.3643 31.8446 98.4458 31.7063 98.5336 31.4832L105.904 12.5092C105.995 12.2861 106.02 12.1478 105.985 12.0912ZM37.9462 29.4811L37.1688 31.4863C37.081 31.6906 36.9932 31.8258 36.9149 31.8918C36.8334 31.9578 36.6954 31.9892 36.4979 31.9892H28.9774L28.9837 31.9829C27.5354 31.9829 26.6106 31.6246 26.2093 30.9112C25.8081 30.1977 25.9084 29.0694 26.5165 27.5262L28.9555 21.2592C29.3473 20.2189 29.6953 19.4048 29.9994 18.8234C30.3034 18.2388 30.6577 17.7925 31.059 17.4876C31.4602 17.1828 31.9555 16.9911 32.5449 16.9156C33.1342 16.8402 33.9117 16.8056 34.8772 16.8056H41.1501C41.3632 16.8056 41.4886 16.8339 41.5231 16.8905C41.5576 16.947 41.5325 17.0853 41.4416 17.3085L37.3945 27.6708C37.1625 28.246 37.0465 28.6105 37.0465 28.7583C37.0465 28.8525 37.0936 28.9248 37.1939 28.9248H37.6829C37.987 28.9248 38.0277 29.0348 38.0277 29.148C38.0277 29.2234 38.0027 29.3334 37.9462 29.4811ZM36.5638 19.9769H33.78C33.385 19.9769 33.0308 20.2189 32.8897 20.5897L30.0871 27.8562C29.9147 28.3025 30.2439 28.7834 30.7204 28.7834H33.1687L36.5638 19.9769ZM90.5429 21.1492L88.0224 27.6394C87.6275 28.6608 87.2764 29.4686 86.9629 30.0626C86.6494 30.6566 86.292 31.1029 85.8907 31.3983C85.4895 31.6938 84.9942 31.8855 84.4048 31.9704C83.8155 32.0552 83.038 32.0961 82.0725 32.0961H79.3608C77.3608 32.0961 76.3608 31.3795 76.3608 29.9494C76.3608 29.3554 76.5395 28.5854 76.8968 27.6362L79.4173 21.146C79.8279 20.1246 80.1853 19.3168 80.4894 18.7228C80.7935 18.1288 81.1477 17.6825 81.549 17.3871C81.9502 17.0916 82.4455 16.8999 83.0349 16.815C83.6242 16.7302 84.4017 16.6893 85.3672 16.6893H88.0757C90.0758 16.6893 91.0789 17.4059 91.0789 18.836C91.0789 19.43 90.9002 20.2 90.5429 21.1492ZM86.176 19.9769H84.4393C84.0506 19.9769 83.7026 20.2157 83.5615 20.5803L80.6932 28.0165C80.549 28.3874 80.8217 28.7834 81.2198 28.7834H83.2857C83.5553 28.7834 83.7998 28.6168 83.897 28.3622L86.7873 20.8663C86.9535 20.4357 86.6368 19.9737 86.176 19.9737V19.9769Z" fill="white"/>
<path d="M36.6858 0L40.3437 10.134L32.9665 15.3844L42.8564 13.6093L50.5486 15.3844L36.6858 0Z" fill="url(#paint0_linear_62_848)"/>
<defs>
<linearGradient id="paint0_linear_62_848" x1="32.9665" y1="-0.338103" x2="50.7805" y2="-0.0708544" gradientUnits="userSpaceOnUse">
<stop stop-color="#003BD2"/>
<stop offset="1" stop-color="#00FFC2"/>
</linearGradient>
</defs>
</svg>
