<svg width="29" height="29" viewBox="0 0 29 29" fill="none" xmlns="http://www.w3.org/2000/svg">
<path d="M3.564 27.126C2.55 27.126 1.776 26.844 1.242 26.28C0.714 25.716 0.45 24.915 0.45 23.877C0.45 23.361 0.531 22.902 0.693 22.5C0.855 22.092 1.077 21.75 1.359 21.474C1.641 21.192 1.977 20.979 2.367 20.835C2.757 20.691 3.18 20.619 3.636 20.619C3.9 20.619 4.14 20.64 4.356 20.682C4.572 20.718 4.761 20.763 4.923 20.817C5.085 20.865 5.22 20.916 5.328 20.97C5.436 21.024 5.514 21.066 5.562 21.096L5.157 22.23C4.965 22.128 4.74 22.041 4.482 21.969C4.23 21.897 3.942 21.861 3.618 21.861C3.402 21.861 3.189 21.897 2.979 21.969C2.775 22.041 2.592 22.158 2.43 22.32C2.274 22.476 2.148 22.68 2.052 22.932C1.956 23.184 1.908 23.49 1.908 23.85C1.908 24.138 1.938 24.408 1.998 24.66C2.064 24.906 2.166 25.119 2.304 25.299C2.448 25.479 2.634 25.623 2.862 25.731C3.09 25.833 3.366 25.884 3.69 25.884C3.894 25.884 4.077 25.872 4.239 25.848C4.401 25.824 4.545 25.797 4.671 25.767C4.797 25.731 4.908 25.692 5.004 25.65C5.1 25.608 5.187 25.569 5.265 25.533L5.652 26.658C5.454 26.778 5.175 26.886 4.815 26.982C4.455 27.078 4.038 27.126 3.564 27.126ZM10.7229 25.794V27H6.55594V20.763H7.95994V25.794H10.7229ZM12.6304 23.877C12.6304 24.183 12.6664 24.459 12.7384 24.705C12.8164 24.951 12.9244 25.164 13.0624 25.344C13.2064 25.518 13.3804 25.653 13.5844 25.749C13.7884 25.845 14.0224 25.893 14.2864 25.893C14.5444 25.893 14.7754 25.845 14.9794 25.749C15.1894 25.653 15.3634 25.518 15.5014 25.344C15.6454 25.164 15.7534 24.951 15.8254 24.705C15.9034 24.459 15.9424 24.183 15.9424 23.877C15.9424 23.571 15.9034 23.295 15.8254 23.049C15.7534 22.797 15.6454 22.584 15.5014 22.41C15.3634 22.23 15.1894 22.092 14.9794 21.996C14.7754 21.9 14.5444 21.852 14.2864 21.852C14.0224 21.852 13.7884 21.903 13.5844 22.005C13.3804 22.101 13.2064 22.239 13.0624 22.419C12.9244 22.593 12.8164 22.806 12.7384 23.058C12.6664 23.304 12.6304 23.577 12.6304 23.877ZM17.3914 23.877C17.3914 24.411 17.3104 24.882 17.1484 25.29C16.9924 25.692 16.7764 26.031 16.5004 26.307C16.2244 26.577 15.8944 26.781 15.5104 26.919C15.1324 27.057 14.7244 27.126 14.2864 27.126C13.8604 27.126 13.4584 27.057 13.0804 26.919C12.7024 26.781 12.3724 26.577 12.0904 26.307C11.8084 26.031 11.5864 25.692 11.4244 25.29C11.2624 24.882 11.1814 24.411 11.1814 23.877C11.1814 23.343 11.2654 22.875 11.4334 22.473C11.6014 22.065 11.8264 21.723 12.1084 21.447C12.3964 21.171 12.7264 20.964 13.0984 20.826C13.4764 20.688 13.8724 20.619 14.2864 20.619C14.7124 20.619 15.1144 20.688 15.4924 20.826C15.8704 20.964 16.2004 21.171 16.4824 21.447C16.7644 21.723 16.9864 22.065 17.1484 22.473C17.3104 22.875 17.3914 23.343 17.3914 23.877ZM20.2628 25.929C20.4608 25.929 20.6228 25.914 20.7488 25.884C20.8808 25.848 20.9858 25.803 21.0638 25.749C21.1418 25.689 21.1958 25.62 21.2258 25.542C21.2558 25.464 21.2708 25.377 21.2708 25.281C21.2708 25.077 21.1748 24.909 20.9828 24.777C20.7908 24.639 20.4608 24.492 19.9928 24.336C19.7888 24.264 19.5848 24.183 19.3808 24.093C19.1768 23.997 18.9938 23.88 18.8318 23.742C18.6698 23.598 18.5378 23.427 18.4358 23.229C18.3338 23.025 18.2828 22.779 18.2828 22.491C18.2828 22.203 18.3368 21.945 18.4448 21.717C18.5528 21.483 18.7058 21.285 18.9038 21.123C19.1018 20.961 19.3418 20.838 19.6238 20.754C19.9058 20.664 20.2238 20.619 20.5778 20.619C20.9978 20.619 21.3608 20.664 21.6668 20.754C21.9728 20.844 22.2248 20.943 22.4228 21.051L22.0178 22.158C21.8438 22.068 21.6488 21.99 21.4328 21.924C21.2228 21.852 20.9678 21.816 20.6678 21.816C20.3318 21.816 20.0888 21.864 19.9388 21.96C19.7948 22.05 19.7228 22.191 19.7228 22.383C19.7228 22.497 19.7498 22.593 19.8038 22.671C19.8578 22.749 19.9328 22.821 20.0288 22.887C20.1308 22.947 20.2448 23.004 20.3708 23.058C20.5028 23.106 20.6468 23.157 20.8028 23.211C21.1268 23.331 21.4088 23.451 21.6488 23.571C21.8888 23.685 22.0868 23.82 22.2428 23.976C22.4048 24.132 22.5248 24.315 22.6028 24.525C22.6808 24.735 22.7198 24.99 22.7198 25.29C22.7198 25.872 22.5158 26.325 22.1078 26.649C21.6998 26.967 21.0848 27.126 20.2628 27.126C19.9868 27.126 19.7378 27.108 19.5158 27.072C19.2938 27.042 19.0958 27.003 18.9218 26.955C18.7538 26.907 18.6068 26.856 18.4808 26.802C18.3608 26.748 18.2588 26.697 18.1748 26.649L18.5708 25.533C18.7568 25.635 18.9848 25.728 19.2548 25.812C19.5308 25.89 19.8668 25.929 20.2628 25.929ZM23.8001 27V20.763H28.0121V21.942H25.2041V23.166H27.6971V24.318H25.2041V25.821H28.2191V27H23.8001Z" fill="white"/>
<path d="M19.9143 0L21.9 2L9.98571 14L8 12L19.9143 0Z" fill="#69EAFF"/>
<path d="M10.0857 0L8.1 2L20.0143 14L22 12L10.0857 0Z" fill="#69EAFF"/>
</svg>
