<svg width="27" height="33" viewBox="0 0 27 33" fill="none" xmlns="http://www.w3.org/2000/svg">
<path d="M7.07692 0L12.0701 13.8331L2 21L15.5 18.5769L26 21L7.07692 0Z" fill="url(#paint0_linear_2002_5)"/>
<path d="M2.376 24.763C2.484 24.961 2.607 25.207 2.745 25.501C2.889 25.789 3.036 26.104 3.186 26.446C3.342 26.782 3.495 27.127 3.645 27.481C3.795 27.835 3.936 28.168 4.068 28.48C4.2 28.168 4.341 27.835 4.491 27.481C4.641 27.127 4.791 26.782 4.941 26.446C5.097 26.104 5.244 25.789 5.382 25.501C5.526 25.207 5.652 24.961 5.76 24.763H7.038C7.098 25.177 7.152 25.642 7.2 26.158C7.254 26.668 7.299 27.202 7.335 27.76C7.377 28.312 7.413 28.867 7.443 29.425C7.479 29.983 7.509 30.508 7.533 31H6.165C6.147 30.394 6.123 29.734 6.093 29.02C6.063 28.306 6.018 27.586 5.958 26.86C5.85 27.112 5.73 27.391 5.598 27.697C5.466 28.003 5.334 28.309 5.202 28.615C5.076 28.921 4.953 29.215 4.833 29.497C4.713 29.773 4.611 30.01 4.527 30.208H3.546C3.462 30.01 3.36 29.773 3.24 29.497C3.12 29.215 2.994 28.921 2.862 28.615C2.736 28.309 2.607 28.003 2.475 27.697C2.343 27.391 2.223 27.112 2.115 26.86C2.055 27.586 2.01 28.306 1.98 29.02C1.95 29.734 1.926 30.394 1.908 31H0.54C0.564 30.508 0.591 29.983 0.621 29.425C0.657 28.867 0.693 28.312 0.729 27.76C0.771 27.202 0.816 26.668 0.864 26.158C0.918 25.642 0.975 25.177 1.035 24.763H2.376ZM8.79715 31V24.763H13.0091V25.942H10.2011V27.166H12.6941V28.318H10.2011V29.821H13.2161V31H8.79715ZM18.4402 31C18.0382 30.286 17.6032 29.581 17.1352 28.885C16.6672 28.189 16.1692 27.532 15.6412 26.914V31H14.2552V24.763H15.3982C15.5962 24.961 15.8152 25.204 16.0552 25.492C16.2952 25.78 16.5382 26.089 16.7842 26.419C17.0362 26.743 17.2852 27.082 17.5312 27.436C17.7772 27.784 18.0082 28.12 18.2242 28.444V24.763H19.6192V31H18.4402ZM23.4969 31.126C23.0589 31.126 22.6809 31.066 22.3629 30.946C22.0449 30.82 21.7809 30.649 21.5709 30.433C21.3669 30.211 21.2139 29.95 21.1119 29.65C21.0159 29.344 20.9679 29.008 20.9679 28.642V24.763H22.3719V28.525C22.3719 28.777 22.3989 28.993 22.4529 29.173C22.5129 29.347 22.5909 29.491 22.6869 29.605C22.7889 29.713 22.9089 29.791 23.0469 29.839C23.1909 29.887 23.3469 29.911 23.5149 29.911C23.8569 29.911 24.1329 29.806 24.3429 29.596C24.5589 29.386 24.6669 29.029 24.6669 28.525V24.763H26.0709V28.642C26.0709 29.008 26.0199 29.344 25.9179 29.65C25.8159 29.956 25.6599 30.22 25.4499 30.442C25.2399 30.658 24.9729 30.826 24.6489 30.946C24.3249 31.066 23.9409 31.126 23.4969 31.126Z" fill="white"/>
<defs>
<linearGradient id="paint0_linear_2002_5" x1="2" y1="-0.461518" x2="26.3165" y2="-0.0967178" gradientUnits="userSpaceOnUse">
<stop stop-color="#003BD2"/>
<stop offset="1" stop-color="#00FFC2"/>
</linearGradient>
</defs>
</svg>
