<svg width="54" height="54" viewBox="0 0 54 54" fill="none" xmlns="http://www.w3.org/2000/svg">
<rect opacity="0.1" width="54" height="54" rx="5" fill="white"/>
<path d="M34.1458 23.6866C33.6354 23.3881 32.9792 23.3881 32.3958 23.6866L28.3125 26.1493L25.5417 27.7164L21.5313 30.1791C21.0208 30.4776 20.3646 30.4776 19.7813 30.1791L16.6458 28.2388C16.1354 27.9403 15.7708 27.3433 15.7708 26.6716V22.9403C15.7708 22.3433 16.0625 21.7463 16.6458 21.3731L19.7813 19.5075C20.2917 19.209 20.9479 19.209 21.5313 19.5075L24.6667 21.4478C25.1771 21.7463 25.5417 22.3433 25.5417 23.0149V25.4776L28.3125 23.8358V21.2985C28.3125 20.7015 28.0208 20.1045 27.4375 19.7313L21.6042 16.2239C21.0938 15.9254 20.4375 15.9254 19.8542 16.2239L13.875 19.806C13.2917 20.1045 13 20.7015 13 21.2985V28.3134C13 28.9104 13.2917 29.5075 13.875 29.8806L19.7813 33.3881C20.2917 33.6866 20.9479 33.6866 21.5313 33.3881L25.5417 31L28.3125 29.3582L32.3229 26.9701C32.8333 26.6716 33.4896 26.6716 34.0729 26.9701L37.2083 28.8358C37.7188 29.1343 38.0833 29.7313 38.0833 30.403V34.1343C38.0833 34.7313 37.7917 35.3284 37.2083 35.7015L34.1458 37.5672C33.6354 37.8657 32.9792 37.8657 32.3958 37.5672L29.2604 35.7015C28.75 35.403 28.3854 34.806 28.3854 34.1343V31.7463L25.6146 33.3881V35.8507C25.6146 36.4478 25.9063 37.0448 26.4896 37.4179L32.3958 40.9254C32.9063 41.2239 33.5625 41.2239 34.1458 40.9254L40.0521 37.4179C40.5625 37.1194 40.9271 36.5224 40.9271 35.8507V28.7612C40.9271 28.1642 40.6354 27.5672 40.0521 27.194L34.1458 23.6866Z" fill="#8247E5"/>
</svg>
