<svg width="31" height="31" viewBox="0 0 31 31" fill="none" xmlns="http://www.w3.org/2000/svg">
<path d="M20.336 10.912C19.9307 12.0853 19.5413 13.1733 19.168 14.176C18.8053 15.168 18.448 16.112 18.096 17.008C17.744 17.904 17.392 18.7627 17.04 19.584C16.6987 20.3947 16.3467 21.2 15.984 22H14.528C14.1653 21.2 13.808 20.3947 13.456 19.584C13.1147 18.7627 12.7627 17.904 12.4 17.008C12.048 16.112 11.6853 15.168 11.312 14.176C10.9387 13.1733 10.5547 12.0853 10.16 10.912H11.872C12.448 12.5973 13.0133 14.2187 13.568 15.776C14.1227 17.3333 14.6933 18.7947 15.28 20.16C15.8667 18.8053 16.4373 17.3493 16.992 15.792C17.5467 14.224 18.1067 12.5973 18.672 10.912H20.336Z" fill="#003BD2"/>
<circle cx="15.5" cy="15.5" r="14.5" stroke="#003BD2" stroke-width="2"/>
</svg>
