<svg width="31" height="31" viewBox="0 0 31 31" fill="none" xmlns="http://www.w3.org/2000/svg">
<path d="M9.376 9.912H10.928V21H9.376V9.912ZM22.6329 9.912C22.2275 11.0853 21.8382 12.1733 21.4649 13.176C21.1022 14.168 20.7449 15.112 20.3929 16.008C20.0409 16.904 19.6889 17.7627 19.3369 18.584C18.9955 19.3947 18.6435 20.2 18.2809 21H16.8249C16.4622 20.2 16.1049 19.3947 15.7529 18.584C15.4115 17.7627 15.0595 16.904 14.6969 16.008C14.3449 15.112 13.9822 14.168 13.6089 13.176C13.2355 12.1733 12.8515 11.0853 12.4569 9.912H14.1689C14.7449 11.5973 15.3102 13.2187 15.8649 14.776C16.4195 16.3333 16.9902 17.7947 17.5769 19.16C18.1635 17.8053 18.7342 16.3493 19.2889 14.792C19.8435 13.224 20.4035 11.5973 20.9689 9.912H22.6329Z" fill="#003BD2"/>
<circle cx="15.5" cy="15.5" r="14.5" stroke="#003BD2" stroke-width="2"/>
</svg>
