<svg width="31" height="31" viewBox="0 0 31 31" fill="none" xmlns="http://www.w3.org/2000/svg">
<path d="M16.336 9.912C15.9307 11.0853 15.5413 12.1733 15.168 13.176C14.8053 14.168 14.448 15.112 14.096 16.008C13.744 16.904 13.392 17.7627 13.04 18.584C12.6987 19.3947 12.3467 20.2 11.984 21H10.528C10.1653 20.2 9.808 19.3947 9.456 18.584C9.11467 17.7627 8.76267 16.904 8.4 16.008C8.048 15.112 7.68533 14.168 7.312 13.176C6.93867 12.1733 6.55467 11.0853 6.16 9.912H7.872C8.448 11.5973 9.01333 13.2187 9.568 14.776C10.1227 16.3333 10.6933 17.7947 11.28 19.16C11.8667 17.8053 12.4373 16.3493 12.992 14.792C13.5467 13.224 14.1067 11.5973 14.672 9.912H16.336ZM17.876 9.912H19.428V21H17.876V9.912ZM22.1729 9.912H23.7249V21H22.1729V9.912Z" fill="#003BD2"/>
<circle cx="15.5" cy="15.5" r="14.5" stroke="#003BD2" stroke-width="2"/>
</svg>
