<svg width="31" height="31" viewBox="0 0 31 31" fill="none" xmlns="http://www.w3.org/2000/svg">
<path d="M14.336 9.912C13.9307 11.0853 13.5413 12.1733 13.168 13.176C12.8053 14.168 12.448 15.112 12.096 16.008C11.744 16.904 11.392 17.7627 11.04 18.584C10.6987 19.3947 10.3467 20.2 9.984 21H8.528C8.16533 20.2 7.808 19.3947 7.456 18.584C7.11467 17.7627 6.76267 16.904 6.4 16.008C6.048 15.112 5.68533 14.168 5.312 13.176C4.93867 12.1733 4.55467 11.0853 4.16 9.912H5.872C6.448 11.5973 7.01333 13.2187 7.568 14.776C8.12267 16.3333 8.69333 17.7947 9.28 19.16C9.86667 17.8053 10.4373 16.3493 10.992 14.792C11.5467 13.224 12.1067 11.5973 12.672 9.912H14.336ZM15.876 9.912H17.428V21H15.876V9.912ZM20.1729 9.912H21.7249V21H20.1729V9.912ZM24.4698 9.912H26.0218V21H24.4698V9.912Z" fill="#003BD2"/>
<circle cx="15.5" cy="15.5" r="14.5" stroke="#003BD2" stroke-width="2"/>
</svg>
