<svg width="31" height="31" viewBox="0 0 31 31" fill="none" xmlns="http://www.w3.org/2000/svg">
<path d="M18.336 9.912C17.9307 11.0853 17.5413 12.1733 17.168 13.176C16.8053 14.168 16.448 15.112 16.096 16.008C15.744 16.904 15.392 17.7627 15.04 18.584C14.6987 19.3947 14.3467 20.2 13.984 21H12.528C12.1653 20.2 11.808 19.3947 11.456 18.584C11.1147 17.7627 10.7627 16.904 10.4 16.008C10.048 15.112 9.68533 14.168 9.312 13.176C8.93867 12.1733 8.55467 11.0853 8.16 9.912H9.872C10.448 11.5973 11.0133 13.2187 11.568 14.776C12.1227 16.3333 12.6933 17.7947 13.28 19.16C13.8667 17.8053 14.4373 16.3493 14.992 14.792C15.5467 13.224 16.1067 11.5973 16.672 9.912H18.336ZM19.876 9.912H21.428V21H19.876V9.912Z" fill="#003BD2"/>
<circle cx="15.5" cy="15.5" r="14.5" stroke="#003BD2" stroke-width="2"/>
</svg>
