<svg width="31" height="31" viewBox="0 0 31 31" fill="none" xmlns="http://www.w3.org/2000/svg">
<path d="M16.032 21C15.872 20.68 15.68 20.328 15.456 19.944C15.232 19.5493 14.9867 19.144 14.72 18.728C14.4533 18.3013 14.176 17.88 13.888 17.464C13.6 17.0373 13.3227 16.6373 13.056 16.264C12.7893 16.6373 12.512 17.0373 12.224 17.464C11.936 17.88 11.6587 18.3013 11.392 18.728C11.136 19.144 10.8907 19.5493 10.656 19.944C10.432 20.328 10.24 20.68 10.08 21H8.368C8.848 20.0613 9.40267 19.1067 10.032 18.136C10.672 17.1653 11.3493 16.168 12.064 15.144L8.512 9.912H10.304L13.04 14.04L15.744 9.912H17.52L14.032 15.08C14.7573 16.1147 15.44 17.1227 16.08 18.104C16.72 19.0853 17.2853 20.0507 17.776 21H16.032ZM19.4698 9.912H21.0218V21H19.4698V9.912Z" fill="#003BD2"/>
<circle cx="15.5" cy="15.5" r="14.5" stroke="#003BD2" stroke-width="2"/>
</svg>
