<svg width="54" height="54" viewBox="0 0 54 54" fill="none" xmlns="http://www.w3.org/2000/svg">
<rect opacity="0.1" width="54" height="54" rx="5" fill="white"/>
<path d="M16.7454 35.5544C16.9216 35.3773 17.1639 35.274 17.421 35.274H40.7292C41.1551 35.274 41.3681 35.7905 41.067 36.093L36.4626 40.7195C36.2864 40.8966 36.044 40.9999 35.787 40.9999H12.4788C12.0529 40.9999 11.8399 40.4834 12.141 40.1809L16.7454 35.5544Z" fill="url(#paint0_linear_2006_60)"/>
<path d="M16.7454 18.2804C16.929 18.1033 17.1713 18 17.421 18H40.7292C41.1551 18 41.3681 18.5165 41.067 18.819L36.4626 23.4455C36.2864 23.6226 36.044 23.7259 35.787 23.7259H12.4788C12.0529 23.7259 11.8399 23.2094 12.141 22.9069L16.7454 18.2804Z" fill="url(#paint1_linear_2006_60)"/>
<path d="M36.4626 26.862C36.2864 26.6849 36.044 26.5816 35.787 26.5816H12.4788C12.0529 26.5816 11.8399 27.0981 12.141 27.4006L16.7454 32.0271C16.9216 32.2042 17.1639 32.3075 17.421 32.3075H40.7292C41.1551 32.3075 41.3681 31.791 41.067 31.4885L36.4626 26.862Z" fill="url(#paint2_linear_2006_60)"/>
<defs>
<linearGradient id="paint0_linear_2006_60" x1="38.5026" y1="15.2365" x2="22.2496" y2="46.2187" gradientUnits="userSpaceOnUse">
<stop stop-color="#00FFA3"/>
<stop offset="1" stop-color="#DC1FFF"/>
</linearGradient>
<linearGradient id="paint1_linear_2006_60" x1="31.4492" y1="11.5361" x2="15.1961" y2="42.5183" gradientUnits="userSpaceOnUse">
<stop stop-color="#00FFA3"/>
<stop offset="1" stop-color="#DC1FFF"/>
</linearGradient>
<linearGradient id="paint2_linear_2006_60" x1="34.9534" y1="13.3745" x2="18.7004" y2="44.3567" gradientUnits="userSpaceOnUse">
<stop stop-color="#00FFA3"/>
<stop offset="1" stop-color="#DC1FFF"/>
</linearGradient>
</defs>
</svg>
