<svg width="375" height="347" viewBox="0 0 375 347" fill="none" xmlns="http://www.w3.org/2000/svg">
<g opacity="0.25">
<path d="M-496 10.8558C-484.605 -2.28528 -473.211 -2.28528 -461.816 10.8558C-450.421 23.9969 -439.026 23.9969 -427.632 10.8558C-416.237 -2.28528 -404.842 -2.28528 -393.447 10.8558C-382.053 23.9969 -370.658 23.9969 -359.263 10.8558C-347.869 -2.28528 -336.474 -2.28528 -325.079 10.8558C-313.684 23.9969 -302.29 23.9969 -290.895 10.8558C-279.5 -2.28528 -268.106 -2.28528 -256.711 10.8558C-245.316 23.9969 -233.921 23.9969 -222.527 10.8558C-211.132 -2.28528 -199.737 -2.28528 -188.342 10.8558C-176.948 23.9969 -165.553 23.9969 -154.158 10.8558C-142.764 -2.28528 -131.369 -2.28528 -119.974 10.8558C-108.579 23.9969 -97.1846 23.9969 -85.7899 10.8558C-74.3952 -2.28528 -63.0005 -2.28528 -51.6058 10.8558C-40.211 23.9969 -28.8163 23.9969 -17.4216 10.8558C-6.02684 -2.28528 5.36786 -2.28528 16.7626 10.8558C28.1573 23.9969 39.552 23.9969 50.9468 10.8558C62.3415 -2.28528 73.7362 -2.28528 85.131 10.8558C96.5257 23.9969 107.92 23.9969 119.315 10.8558C130.71 -2.28528 142.105 -2.28528 153.499 10.8558C164.894 23.9969 176.289 23.9969 187.683 10.8558C199.078 -2.28528 210.473 -2.28528 221.868 10.8558C233.262 23.9969 244.657 23.9969 256.052 10.8558C267.447 -2.28528 278.841 -2.28528 290.236 10.8558C301.631 23.9969 313.025 23.9969 324.42 10.8558C335.815 -2.28528 347.21 -2.28528 358.604 10.8558C369.999 23.9969 381.394 23.9969 392.788 10.8558C404.183 -2.28528 415.578 -2.28528 426.973 10.8558C438.367 23.9969 449.762 23.9969 461.157 10.8558C472.552 -2.28528 483.946 -2.28528 495.341 10.8558C506.736 23.9969 518.13 23.9969 529.525 10.8558C540.92 -2.28528 552.315 -2.28528 563.709 10.8558C575.104 23.9969 586.499 23.9969 597.894 10.8558C609.288 -2.28528 620.683 -2.28528 632.078 10.8558C643.472 23.9969 654.867 23.9969 666.262 10.8558C677.657 -2.28528 689.051 -2.28528 700.446 10.8558C711.841 23.9969 723.236 23.9969 734.63 10.8558C746.025 -2.28528 757.42 -2.28528 768.814 10.8558C780.209 23.9969 791.604 23.9969 802.999 10.8558C814.393 -2.28528 825.788 -2.28528 837.183 10.8558C848.578 23.9969 859.972 23.9969 871.367 10.8558" stroke="url(#paint0_linear_1_320)" stroke-width="2"/>
<path d="M-496 124.55C-484.605 111.409 -473.211 111.409 -461.816 124.55C-450.421 137.691 -439.026 137.691 -427.632 124.55C-416.237 111.409 -404.842 111.409 -393.447 124.55C-382.053 137.691 -370.658 137.691 -359.263 124.55C-347.869 111.409 -336.474 111.409 -325.079 124.55C-313.684 137.691 -302.29 137.691 -290.895 124.55C-279.5 111.409 -268.106 111.409 -256.711 124.55C-245.316 137.691 -233.921 137.691 -222.527 124.55C-211.132 111.409 -199.737 111.409 -188.342 124.55C-176.948 137.691 -165.553 137.691 -154.158 124.55C-142.764 111.409 -131.369 111.409 -119.974 124.55C-108.579 137.691 -97.1846 137.691 -85.7899 124.55C-74.3952 111.409 -63.0005 111.409 -51.6058 124.55C-40.211 137.691 -28.8163 137.691 -17.4216 124.55C-6.02684 111.409 5.36786 111.409 16.7626 124.55C28.1573 137.691 39.552 137.691 50.9468 124.55C62.3415 111.409 73.7362 111.409 85.131 124.55C96.5257 137.691 107.92 137.691 119.315 124.55C130.71 111.409 142.105 111.409 153.499 124.55C164.894 137.691 176.289 137.691 187.683 124.55C199.078 111.409 210.473 111.409 221.868 124.55C233.262 137.691 244.657 137.691 256.052 124.55C267.447 111.409 278.841 111.409 290.236 124.55C301.631 137.691 313.025 137.691 324.42 124.55C335.815 111.409 347.21 111.409 358.604 124.55C369.999 137.691 381.394 137.691 392.788 124.55C404.183 111.409 415.578 111.409 426.973 124.55C438.367 137.691 449.762 137.691 461.157 124.55C472.552 111.409 483.946 111.409 495.341 124.55C506.736 137.691 518.13 137.691 529.525 124.55C540.92 111.409 552.315 111.409 563.709 124.55C575.104 137.691 586.499 137.691 597.894 124.55C609.288 111.409 620.683 111.409 632.078 124.55C643.472 137.691 654.867 137.691 666.262 124.55C677.657 111.409 689.051 111.409 700.446 124.55C711.841 137.691 723.236 137.691 734.63 124.55C746.025 111.409 757.42 111.409 768.814 124.55C780.209 137.691 791.604 137.691 802.999 124.55C814.393 111.409 825.788 111.409 837.183 124.55C848.578 137.691 859.972 137.691 871.367 124.55" stroke="url(#paint1_linear_1_320)" stroke-width="2"/>
<path d="M-496 238.245C-484.605 225.103 -473.211 225.103 -461.816 238.245C-450.421 251.386 -439.026 251.386 -427.632 238.245C-416.237 225.103 -404.842 225.103 -393.447 238.245C-382.053 251.386 -370.658 251.386 -359.263 238.245C-347.869 225.103 -336.474 225.103 -325.079 238.245C-313.684 251.386 -302.29 251.386 -290.895 238.245C-279.5 225.103 -268.106 225.103 -256.711 238.245C-245.316 251.386 -233.921 251.386 -222.527 238.245C-211.132 225.103 -199.737 225.103 -188.342 238.245C-176.948 251.386 -165.553 251.386 -154.158 238.245C-142.764 225.103 -131.369 225.103 -119.974 238.245C-108.579 251.386 -97.1846 251.386 -85.7899 238.245C-74.3952 225.103 -63.0005 225.103 -51.6058 238.245C-40.211 251.386 -28.8163 251.386 -17.4216 238.245C-6.02684 225.103 5.36786 225.103 16.7626 238.245C28.1573 251.386 39.552 251.386 50.9468 238.245C62.3415 225.103 73.7362 225.103 85.131 238.245C96.5257 251.386 107.92 251.386 119.315 238.245C130.71 225.103 142.105 225.103 153.499 238.245C164.894 251.386 176.289 251.386 187.683 238.245C199.078 225.103 210.473 225.103 221.868 238.245C233.262 251.386 244.657 251.386 256.052 238.245C267.447 225.103 278.841 225.103 290.236 238.245C301.631 251.386 313.025 251.386 324.42 238.245C335.815 225.103 347.21 225.103 358.604 238.245C369.999 251.386 381.394 251.386 392.788 238.245C404.183 225.103 415.578 225.103 426.973 238.245C438.367 251.386 449.762 251.386 461.157 238.245C472.552 225.103 483.946 225.103 495.341 238.245C506.736 251.386 518.13 251.386 529.525 238.245C540.92 225.103 552.315 225.103 563.709 238.245C575.104 251.386 586.499 251.386 597.894 238.245C609.288 225.103 620.683 225.103 632.078 238.245C643.472 251.386 654.867 251.386 666.262 238.245C677.657 225.103 689.051 225.103 700.446 238.245C711.841 251.386 723.236 251.386 734.63 238.245C746.025 225.103 757.42 225.103 768.814 238.245C780.209 251.386 791.604 251.386 802.999 238.245C814.393 225.103 825.788 225.103 837.183 238.245C848.578 251.386 859.972 251.386 871.367 238.245" stroke="url(#paint2_linear_1_320)" stroke-width="2"/>
<path d="M-496 27.0978C-484.605 13.9567 -473.211 13.9567 -461.816 27.0978C-450.421 40.2389 -439.026 40.2389 -427.632 27.0978C-416.237 13.9567 -404.842 13.9567 -393.447 27.0978C-382.053 40.2389 -370.658 40.2389 -359.263 27.0978C-347.869 13.9567 -336.474 13.9567 -325.079 27.0978C-313.684 40.2389 -302.29 40.2389 -290.895 27.0978C-279.5 13.9567 -268.106 13.9567 -256.711 27.0978C-245.316 40.2389 -233.921 40.2389 -222.527 27.0978C-211.132 13.9567 -199.737 13.9567 -188.342 27.0978C-176.948 40.2389 -165.553 40.2389 -154.158 27.0978C-142.764 13.9567 -131.369 13.9567 -119.974 27.0978C-108.579 40.2389 -97.1846 40.2389 -85.7899 27.0978C-74.3952 13.9567 -63.0005 13.9567 -51.6058 27.0978C-40.211 40.2389 -28.8163 40.2389 -17.4216 27.0978C-6.02684 13.9567 5.36786 13.9567 16.7626 27.0978C28.1573 40.2389 39.552 40.2389 50.9468 27.0978C62.3415 13.9567 73.7362 13.9567 85.131 27.0978C96.5257 40.2389 107.92 40.2389 119.315 27.0978C130.71 13.9567 142.105 13.9567 153.499 27.0978C164.894 40.2389 176.289 40.2389 187.683 27.0978C199.078 13.9567 210.473 13.9567 221.868 27.0978C233.262 40.2389 244.657 40.2389 256.052 27.0978C267.447 13.9567 278.841 13.9567 290.236 27.0978C301.631 40.2389 313.025 40.2389 324.42 27.0978C335.815 13.9567 347.21 13.9567 358.604 27.0978C369.999 40.2389 381.394 40.2389 392.788 27.0978C404.183 13.9567 415.578 13.9567 426.973 27.0978C438.367 40.2389 449.762 40.2389 461.157 27.0978C472.552 13.9567 483.946 13.9567 495.341 27.0978C506.736 40.2389 518.13 40.2389 529.525 27.0978C540.92 13.9567 552.315 13.9567 563.709 27.0978C575.104 40.2389 586.499 40.2389 597.894 27.0978C609.288 13.9567 620.683 13.9567 632.078 27.0978C643.472 40.2389 654.867 40.2389 666.262 27.0978C677.657 13.9567 689.051 13.9567 700.446 27.0978C711.841 40.2389 723.236 40.2389 734.63 27.0978C746.025 13.9567 757.42 13.9567 768.814 27.0978C780.209 40.2389 791.604 40.2389 802.999 27.0978C814.393 13.9567 825.788 13.9567 837.183 27.0978C848.578 40.2389 859.972 40.2389 871.367 27.0978" stroke="url(#paint3_linear_1_320)" stroke-width="2"/>
<path d="M-496 140.792C-484.605 127.651 -473.211 127.651 -461.816 140.792C-450.421 153.933 -439.026 153.933 -427.632 140.792C-416.237 127.651 -404.842 127.651 -393.447 140.792C-382.053 153.933 -370.658 153.933 -359.263 140.792C-347.869 127.651 -336.474 127.651 -325.079 140.792C-313.684 153.933 -302.29 153.933 -290.895 140.792C-279.5 127.651 -268.106 127.651 -256.711 140.792C-245.316 153.933 -233.921 153.933 -222.527 140.792C-211.132 127.651 -199.737 127.651 -188.342 140.792C-176.948 153.933 -165.553 153.933 -154.158 140.792C-142.764 127.651 -131.369 127.651 -119.974 140.792C-108.579 153.933 -97.1846 153.933 -85.7899 140.792C-74.3952 127.651 -63.0005 127.651 -51.6058 140.792C-40.211 153.933 -28.8163 153.933 -17.4216 140.792C-6.02684 127.651 5.36786 127.651 16.7626 140.792C28.1573 153.933 39.552 153.933 50.9468 140.792C62.3415 127.651 73.7362 127.651 85.131 140.792C96.5257 153.933 107.92 153.933 119.315 140.792C130.71 127.651 142.105 127.651 153.499 140.792C164.894 153.933 176.289 153.933 187.683 140.792C199.078 127.651 210.473 127.651 221.868 140.792C233.262 153.933 244.657 153.933 256.052 140.792C267.447 127.651 278.841 127.651 290.236 140.792C301.631 153.933 313.025 153.933 324.42 140.792C335.815 127.651 347.21 127.651 358.604 140.792C369.999 153.933 381.394 153.933 392.788 140.792C404.183 127.651 415.578 127.651 426.973 140.792C438.367 153.933 449.762 153.933 461.157 140.792C472.552 127.651 483.946 127.651 495.341 140.792C506.736 153.933 518.13 153.933 529.525 140.792C540.92 127.651 552.315 127.651 563.709 140.792C575.104 153.933 586.499 153.933 597.894 140.792C609.288 127.651 620.683 127.651 632.078 140.792C643.472 153.933 654.867 153.933 666.262 140.792C677.657 127.651 689.051 127.651 700.446 140.792C711.841 153.933 723.236 153.933 734.63 140.792C746.025 127.651 757.42 127.651 768.814 140.792C780.209 153.933 791.604 153.933 802.999 140.792C814.393 127.651 825.788 127.651 837.183 140.792C848.578 153.933 859.972 153.933 871.367 140.792" stroke="url(#paint4_linear_1_320)" stroke-width="2"/>
<path d="M-496 254.486C-484.605 241.345 -473.211 241.345 -461.816 254.486C-450.421 267.627 -439.026 267.627 -427.632 254.486C-416.237 241.345 -404.842 241.345 -393.447 254.486C-382.053 267.627 -370.658 267.627 -359.263 254.486C-347.869 241.345 -336.474 241.345 -325.079 254.486C-313.684 267.627 -302.29 267.627 -290.895 254.486C-279.5 241.345 -268.106 241.345 -256.711 254.486C-245.316 267.627 -233.921 267.627 -222.527 254.486C-211.132 241.345 -199.737 241.345 -188.342 254.486C-176.948 267.627 -165.553 267.627 -154.158 254.486C-142.764 241.345 -131.369 241.345 -119.974 254.486C-108.579 267.627 -97.1846 267.627 -85.7899 254.486C-74.3952 241.345 -63.0005 241.345 -51.6058 254.486C-40.211 267.627 -28.8163 267.627 -17.4216 254.486C-6.02684 241.345 5.36786 241.345 16.7626 254.486C28.1573 267.627 39.552 267.627 50.9468 254.486C62.3415 241.345 73.7362 241.345 85.131 254.486C96.5257 267.627 107.92 267.627 119.315 254.486C130.71 241.345 142.105 241.345 153.499 254.486C164.894 267.627 176.289 267.627 187.683 254.486C199.078 241.345 210.473 241.345 221.868 254.486C233.262 267.627 244.657 267.627 256.052 254.486C267.447 241.345 278.841 241.345 290.236 254.486C301.631 267.627 313.025 267.627 324.42 254.486C335.815 241.345 347.21 241.345 358.604 254.486C369.999 267.627 381.394 267.627 392.788 254.486C404.183 241.345 415.578 241.345 426.973 254.486C438.367 267.627 449.762 267.627 461.157 254.486C472.552 241.345 483.946 241.345 495.341 254.486C506.736 267.627 518.13 267.627 529.525 254.486C540.92 241.345 552.315 241.345 563.709 254.486C575.104 267.627 586.499 267.627 597.894 254.486C609.288 241.345 620.683 241.345 632.078 254.486C643.472 267.627 654.867 267.627 666.262 254.486C677.657 241.345 689.051 241.345 700.446 254.486C711.841 267.627 723.236 267.627 734.63 254.486C746.025 241.345 757.42 241.345 768.814 254.486C780.209 267.627 791.604 267.627 802.999 254.486C814.393 241.345 825.788 241.345 837.183 254.486C848.578 267.627 859.972 267.627 871.367 254.486" stroke="url(#paint5_linear_1_320)" stroke-width="2"/>
<path d="M-496 43.3402C-484.605 30.1991 -473.211 30.1991 -461.816 43.3402C-450.421 56.4813 -439.026 56.4813 -427.632 43.3402C-416.237 30.1991 -404.842 30.1991 -393.447 43.3402C-382.053 56.4813 -370.658 56.4813 -359.263 43.3402C-347.869 30.1991 -336.474 30.1991 -325.079 43.3402C-313.684 56.4813 -302.29 56.4813 -290.895 43.3402C-279.5 30.1991 -268.106 30.1991 -256.711 43.3402C-245.316 56.4813 -233.921 56.4813 -222.527 43.3402C-211.132 30.1991 -199.737 30.1991 -188.342 43.3402C-176.948 56.4813 -165.553 56.4813 -154.158 43.3402C-142.764 30.1991 -131.369 30.1991 -119.974 43.3402C-108.579 56.4813 -97.1846 56.4813 -85.7899 43.3402C-74.3952 30.1991 -63.0005 30.1991 -51.6058 43.3402C-40.211 56.4813 -28.8163 56.4813 -17.4216 43.3402C-6.02684 30.1991 5.36786 30.1991 16.7626 43.3402C28.1573 56.4813 39.552 56.4813 50.9468 43.3402C62.3415 30.1991 73.7362 30.1991 85.131 43.3402C96.5257 56.4813 107.92 56.4813 119.315 43.3402C130.71 30.1991 142.105 30.1991 153.499 43.3402C164.894 56.4813 176.289 56.4813 187.683 43.3402C199.078 30.1991 210.473 30.1991 221.868 43.3402C233.262 56.4813 244.657 56.4813 256.052 43.3402C267.447 30.1991 278.841 30.1991 290.236 43.3402C301.631 56.4813 313.025 56.4813 324.42 43.3402C335.815 30.1991 347.21 30.1991 358.604 43.3402C369.999 56.4813 381.394 56.4813 392.788 43.3402C404.183 30.1991 415.578 30.1991 426.973 43.3402C438.367 56.4813 449.762 56.4813 461.157 43.3402C472.552 30.1991 483.946 30.1991 495.341 43.3402C506.736 56.4813 518.13 56.4813 529.525 43.3402C540.92 30.1991 552.315 30.1991 563.709 43.3402C575.104 56.4813 586.499 56.4813 597.894 43.3402C609.288 30.1991 620.683 30.1991 632.078 43.3402C643.472 56.4813 654.867 56.4813 666.262 43.3402C677.657 30.1991 689.051 30.1991 700.446 43.3402C711.841 56.4813 723.236 56.4813 734.63 43.3402C746.025 30.1991 757.42 30.1991 768.814 43.3402C780.209 56.4813 791.604 56.4813 802.999 43.3402C814.393 30.1991 825.788 30.1991 837.183 43.3402C848.578 56.4813 859.972 56.4813 871.367 43.3402" stroke="url(#paint6_linear_1_320)" stroke-width="2"/>
<path d="M-496 157.034C-484.605 143.892 -473.211 143.892 -461.816 157.034C-450.421 170.175 -439.026 170.175 -427.632 157.034C-416.237 143.892 -404.842 143.892 -393.447 157.034C-382.053 170.175 -370.658 170.175 -359.263 157.034C-347.869 143.892 -336.474 143.892 -325.079 157.034C-313.684 170.175 -302.29 170.175 -290.895 157.034C-279.5 143.892 -268.106 143.892 -256.711 157.034C-245.316 170.175 -233.921 170.175 -222.527 157.034C-211.132 143.892 -199.737 143.892 -188.342 157.034C-176.948 170.175 -165.553 170.175 -154.158 157.034C-142.764 143.892 -131.369 143.892 -119.974 157.034C-108.579 170.175 -97.1846 170.175 -85.7899 157.034C-74.3952 143.892 -63.0005 143.892 -51.6058 157.034C-40.211 170.175 -28.8163 170.175 -17.4216 157.034C-6.02684 143.892 5.36786 143.892 16.7626 157.034C28.1573 170.175 39.552 170.175 50.9468 157.034C62.3415 143.892 73.7362 143.892 85.131 157.034C96.5257 170.175 107.92 170.175 119.315 157.034C130.71 143.892 142.105 143.892 153.499 157.034C164.894 170.175 176.289 170.175 187.683 157.034C199.078 143.892 210.473 143.892 221.868 157.034C233.262 170.175 244.657 170.175 256.052 157.034C267.447 143.892 278.841 143.892 290.236 157.034C301.631 170.175 313.025 170.175 324.42 157.034C335.815 143.892 347.21 143.892 358.604 157.034C369.999 170.175 381.394 170.175 392.788 157.034C404.183 143.892 415.578 143.892 426.973 157.034C438.367 170.175 449.762 170.175 461.157 157.034C472.552 143.892 483.946 143.892 495.341 157.034C506.736 170.175 518.13 170.175 529.525 157.034C540.92 143.892 552.315 143.892 563.709 157.034C575.104 170.175 586.499 170.175 597.894 157.034C609.288 143.892 620.683 143.892 632.078 157.034C643.472 170.175 654.867 170.175 666.262 157.034C677.657 143.892 689.051 143.892 700.446 157.034C711.841 170.175 723.236 170.175 734.63 157.034C746.025 143.892 757.42 143.892 768.814 157.034C780.209 170.175 791.604 170.175 802.999 157.034C814.393 143.892 825.788 143.892 837.183 157.034C848.578 170.175 859.972 170.175 871.367 157.034" stroke="url(#paint7_linear_1_320)" stroke-width="2"/>
<path d="M-496 270.728C-484.605 257.587 -473.211 257.587 -461.816 270.728C-450.421 283.869 -439.026 283.869 -427.632 270.728C-416.237 257.587 -404.842 257.587 -393.447 270.728C-382.053 283.869 -370.658 283.869 -359.263 270.728C-347.869 257.587 -336.474 257.587 -325.079 270.728C-313.684 283.869 -302.29 283.869 -290.895 270.728C-279.5 257.587 -268.106 257.587 -256.711 270.728C-245.316 283.869 -233.921 283.869 -222.527 270.728C-211.132 257.587 -199.737 257.587 -188.342 270.728C-176.948 283.869 -165.553 283.869 -154.158 270.728C-142.764 257.587 -131.369 257.587 -119.974 270.728C-108.579 283.869 -97.1846 283.869 -85.7899 270.728C-74.3952 257.587 -63.0005 257.587 -51.6058 270.728C-40.211 283.869 -28.8163 283.869 -17.4216 270.728C-6.02684 257.587 5.36786 257.587 16.7626 270.728C28.1573 283.869 39.552 283.869 50.9468 270.728C62.3415 257.587 73.7362 257.587 85.131 270.728C96.5257 283.869 107.92 283.869 119.315 270.728C130.71 257.587 142.105 257.587 153.499 270.728C164.894 283.869 176.289 283.869 187.683 270.728C199.078 257.587 210.473 257.587 221.868 270.728C233.262 283.869 244.657 283.869 256.052 270.728C267.447 257.587 278.841 257.587 290.236 270.728C301.631 283.869 313.025 283.869 324.42 270.728C335.815 257.587 347.21 257.587 358.604 270.728C369.999 283.869 381.394 283.869 392.788 270.728C404.183 257.587 415.578 257.587 426.973 270.728C438.367 283.869 449.762 283.869 461.157 270.728C472.552 257.587 483.946 257.587 495.341 270.728C506.736 283.869 518.13 283.869 529.525 270.728C540.92 257.587 552.315 257.587 563.709 270.728C575.104 283.869 586.499 283.869 597.894 270.728C609.288 257.587 620.683 257.587 632.078 270.728C643.472 283.869 654.867 283.869 666.262 270.728C677.657 257.587 689.051 257.587 700.446 270.728C711.841 283.869 723.236 283.869 734.63 270.728C746.025 257.587 757.42 257.587 768.814 270.728C780.209 283.869 791.604 283.869 802.999 270.728C814.393 257.587 825.788 257.587 837.183 270.728C848.578 283.869 859.972 283.869 871.367 270.728" stroke="url(#paint8_linear_1_320)" stroke-width="2"/>
<path d="M-496 59.5814C-484.605 46.4403 -473.211 46.4403 -461.816 59.5814C-450.421 72.7225 -439.026 72.7225 -427.632 59.5814C-416.237 46.4403 -404.842 46.4403 -393.447 59.5814C-382.053 72.7225 -370.658 72.7225 -359.263 59.5814C-347.869 46.4403 -336.474 46.4403 -325.079 59.5814C-313.684 72.7225 -302.29 72.7225 -290.895 59.5814C-279.5 46.4403 -268.106 46.4403 -256.711 59.5814C-245.316 72.7225 -233.921 72.7225 -222.527 59.5814C-211.132 46.4403 -199.737 46.4403 -188.342 59.5814C-176.948 72.7225 -165.553 72.7225 -154.158 59.5814C-142.764 46.4403 -131.369 46.4403 -119.974 59.5814C-108.579 72.7225 -97.1846 72.7225 -85.7899 59.5814C-74.3952 46.4403 -63.0005 46.4403 -51.6058 59.5814C-40.211 72.7225 -28.8163 72.7225 -17.4216 59.5814C-6.02684 46.4403 5.36786 46.4403 16.7626 59.5814C28.1573 72.7225 39.552 72.7225 50.9468 59.5814C62.3415 46.4403 73.7362 46.4403 85.131 59.5814C96.5257 72.7225 107.92 72.7225 119.315 59.5814C130.71 46.4403 142.105 46.4403 153.499 59.5814C164.894 72.7225 176.289 72.7225 187.683 59.5814C199.078 46.4403 210.473 46.4403 221.868 59.5814C233.262 72.7225 244.657 72.7225 256.052 59.5814C267.447 46.4403 278.841 46.4403 290.236 59.5814C301.631 72.7225 313.025 72.7225 324.42 59.5814C335.815 46.4403 347.21 46.4403 358.604 59.5814C369.999 72.7225 381.394 72.7225 392.788 59.5814C404.183 46.4403 415.578 46.4403 426.973 59.5814C438.367 72.7225 449.762 72.7225 461.157 59.5814C472.552 46.4403 483.946 46.4403 495.341 59.5814C506.736 72.7225 518.13 72.7225 529.525 59.5814C540.92 46.4403 552.315 46.4403 563.709 59.5814C575.104 72.7225 586.499 72.7225 597.894 59.5814C609.288 46.4403 620.683 46.4403 632.078 59.5814C643.472 72.7225 654.867 72.7225 666.262 59.5814C677.657 46.4403 689.051 46.4403 700.446 59.5814C711.841 72.7225 723.236 72.7225 734.63 59.5814C746.025 46.4403 757.42 46.4403 768.814 59.5814C780.209 72.7225 791.604 72.7225 802.999 59.5814C814.393 46.4403 825.788 46.4403 837.183 59.5814C848.578 72.7225 859.972 72.7225 871.367 59.5814" stroke="url(#paint9_linear_1_320)" stroke-width="2"/>
<path d="M-496 173.276C-484.605 160.135 -473.211 160.135 -461.816 173.276C-450.421 186.417 -439.026 186.417 -427.632 173.276C-416.237 160.135 -404.842 160.135 -393.447 173.276C-382.053 186.417 -370.658 186.417 -359.263 173.276C-347.869 160.135 -336.474 160.135 -325.079 173.276C-313.684 186.417 -302.29 186.417 -290.895 173.276C-279.5 160.135 -268.106 160.135 -256.711 173.276C-245.316 186.417 -233.921 186.417 -222.527 173.276C-211.132 160.135 -199.737 160.135 -188.342 173.276C-176.948 186.417 -165.553 186.417 -154.158 173.276C-142.764 160.135 -131.369 160.135 -119.974 173.276C-108.579 186.417 -97.1846 186.417 -85.7899 173.276C-74.3952 160.135 -63.0005 160.135 -51.6058 173.276C-40.211 186.417 -28.8163 186.417 -17.4216 173.276C-6.02684 160.135 5.36786 160.135 16.7626 173.276C28.1573 186.417 39.552 186.417 50.9468 173.276C62.3415 160.135 73.7362 160.135 85.131 173.276C96.5257 186.417 107.92 186.417 119.315 173.276C130.71 160.135 142.105 160.135 153.499 173.276C164.894 186.417 176.289 186.417 187.683 173.276C199.078 160.135 210.473 160.135 221.868 173.276C233.262 186.417 244.657 186.417 256.052 173.276C267.447 160.135 278.841 160.135 290.236 173.276C301.631 186.417 313.025 186.417 324.42 173.276C335.815 160.135 347.21 160.135 358.604 173.276C369.999 186.417 381.394 186.417 392.788 173.276C404.183 160.135 415.578 160.135 426.973 173.276C438.367 186.417 449.762 186.417 461.157 173.276C472.552 160.135 483.946 160.135 495.341 173.276C506.736 186.417 518.13 186.417 529.525 173.276C540.92 160.135 552.315 160.135 563.709 173.276C575.104 186.417 586.499 186.417 597.894 173.276C609.288 160.135 620.683 160.135 632.078 173.276C643.472 186.417 654.867 186.417 666.262 173.276C677.657 160.135 689.051 160.135 700.446 173.276C711.841 186.417 723.236 186.417 734.63 173.276C746.025 160.135 757.42 160.135 768.814 173.276C780.209 186.417 791.604 186.417 802.999 173.276C814.393 160.135 825.788 160.135 837.183 173.276C848.578 186.417 859.972 186.417 871.367 173.276" stroke="url(#paint10_linear_1_320)" stroke-width="2"/>
<path d="M-496 286.97C-484.605 273.829 -473.211 273.829 -461.816 286.97C-450.421 300.111 -439.026 300.111 -427.632 286.97C-416.237 273.829 -404.842 273.829 -393.447 286.97C-382.053 300.111 -370.658 300.111 -359.263 286.97C-347.869 273.829 -336.474 273.829 -325.079 286.97C-313.684 300.111 -302.29 300.111 -290.895 286.97C-279.5 273.829 -268.106 273.829 -256.711 286.97C-245.316 300.111 -233.921 300.111 -222.527 286.97C-211.132 273.829 -199.737 273.829 -188.342 286.97C-176.948 300.111 -165.553 300.111 -154.158 286.97C-142.764 273.829 -131.369 273.829 -119.974 286.97C-108.579 300.111 -97.1846 300.111 -85.7899 286.97C-74.3952 273.829 -63.0005 273.829 -51.6058 286.97C-40.211 300.111 -28.8163 300.111 -17.4216 286.97C-6.02684 273.829 5.36786 273.829 16.7626 286.97C28.1573 300.111 39.552 300.111 50.9468 286.97C62.3415 273.829 73.7362 273.829 85.131 286.97C96.5257 300.111 107.92 300.111 119.315 286.97C130.71 273.829 142.105 273.829 153.499 286.97C164.894 300.111 176.289 300.111 187.683 286.97C199.078 273.829 210.473 273.829 221.868 286.97C233.262 300.111 244.657 300.111 256.052 286.97C267.447 273.829 278.841 273.829 290.236 286.97C301.631 300.111 313.025 300.111 324.42 286.97C335.815 273.829 347.21 273.829 358.604 286.97C369.999 300.111 381.394 300.111 392.788 286.97C404.183 273.829 415.578 273.829 426.973 286.97C438.367 300.111 449.762 300.111 461.157 286.97C472.552 273.829 483.946 273.829 495.341 286.97C506.736 300.111 518.13 300.111 529.525 286.97C540.92 273.829 552.315 273.829 563.709 286.97C575.104 300.111 586.499 300.111 597.894 286.97C609.288 273.829 620.683 273.829 632.078 286.97C643.472 300.111 654.867 300.111 666.262 286.97C677.657 273.829 689.051 273.829 700.446 286.97C711.841 300.111 723.236 300.111 734.63 286.97C746.025 273.829 757.42 273.829 768.814 286.97C780.209 300.111 791.604 300.111 802.999 286.97C814.393 273.829 825.788 273.829 837.183 286.97C848.578 300.111 859.972 300.111 871.367 286.97" stroke="url(#paint11_linear_1_320)" stroke-width="2"/>
<path d="M-496 75.8236C-484.605 62.6825 -473.211 62.6825 -461.816 75.8236C-450.421 88.9647 -439.026 88.9647 -427.632 75.8236C-416.237 62.6825 -404.842 62.6825 -393.447 75.8236C-382.053 88.9647 -370.658 88.9647 -359.263 75.8236C-347.869 62.6825 -336.474 62.6825 -325.079 75.8236C-313.684 88.9647 -302.29 88.9647 -290.895 75.8236C-279.5 62.6825 -268.106 62.6825 -256.711 75.8236C-245.316 88.9647 -233.921 88.9647 -222.527 75.8236C-211.132 62.6825 -199.737 62.6825 -188.342 75.8236C-176.948 88.9647 -165.553 88.9647 -154.158 75.8236C-142.764 62.6825 -131.369 62.6825 -119.974 75.8236C-108.579 88.9647 -97.1846 88.9647 -85.7899 75.8236C-74.3952 62.6825 -63.0005 62.6825 -51.6058 75.8236C-40.2111 88.9647 -28.8163 88.9647 -17.4216 75.8236C-6.02688 62.6825 5.36784 62.6825 16.7626 75.8236C28.1573 88.9647 39.552 88.9647 50.9467 75.8236C62.3414 62.6825 73.7362 62.6825 85.1309 75.8236C96.5256 88.9647 107.92 88.9647 119.315 75.8236C130.71 62.6825 142.104 62.6825 153.499 75.8236C164.894 88.9647 176.289 88.9647 187.683 75.8236C199.078 62.6825 210.473 62.6825 221.868 75.8236C233.262 88.9647 244.657 88.9647 256.052 75.8236C267.446 62.6825 278.841 62.6825 290.236 75.8236C301.631 88.9647 313.025 88.9647 324.42 75.8236C335.815 62.6825 347.21 62.6825 358.604 75.8236C369.999 88.9647 381.394 88.9647 392.788 75.8236C404.183 62.6825 415.578 62.6825 426.973 75.8236C438.367 88.9647 449.762 88.9647 461.157 75.8236C472.552 62.6825 483.946 62.6825 495.341 75.8236C506.736 88.9647 518.13 88.9647 529.525 75.8236C540.92 62.6825 552.315 62.6825 563.709 75.8236C575.104 88.9647 586.499 88.9647 597.893 75.8236C609.288 62.6825 620.683 62.6825 632.078 75.8236C643.472 88.9647 654.867 88.9647 666.262 75.8236C677.657 62.6825 689.051 62.6825 700.446 75.8236C711.841 88.9647 723.235 88.9647 734.63 75.8236C746.025 62.6825 757.42 62.6825 768.814 75.8236C780.209 88.9647 791.604 88.9647 802.998 75.8236C814.393 62.6825 825.788 62.6825 837.183 75.8236C848.577 88.9647 859.972 88.9647 871.367 75.8236" stroke="url(#paint12_linear_1_320)" stroke-width="2"/>
<path d="M-496 189.518C-484.605 176.377 -473.211 176.377 -461.816 189.518C-450.421 202.659 -439.026 202.659 -427.632 189.518C-416.237 176.377 -404.842 176.377 -393.447 189.518C-382.053 202.659 -370.658 202.659 -359.263 189.518C-347.869 176.377 -336.474 176.377 -325.079 189.518C-313.684 202.659 -302.29 202.659 -290.895 189.518C-279.5 176.377 -268.106 176.377 -256.711 189.518C-245.316 202.659 -233.921 202.659 -222.527 189.518C-211.132 176.377 -199.737 176.377 -188.342 189.518C-176.948 202.659 -165.553 202.659 -154.158 189.518C-142.764 176.377 -131.369 176.377 -119.974 189.518C-108.579 202.659 -97.1846 202.659 -85.7899 189.518C-74.3952 176.377 -63.0005 176.377 -51.6058 189.518C-40.211 202.659 -28.8163 202.659 -17.4216 189.518C-6.02684 176.377 5.36786 176.377 16.7626 189.518C28.1573 202.659 39.552 202.659 50.9468 189.518C62.3415 176.377 73.7362 176.377 85.131 189.518C96.5257 202.659 107.92 202.659 119.315 189.518C130.71 176.377 142.105 176.377 153.499 189.518C164.894 202.659 176.289 202.659 187.683 189.518C199.078 176.377 210.473 176.377 221.868 189.518C233.262 202.659 244.657 202.659 256.052 189.518C267.447 176.377 278.841 176.377 290.236 189.518C301.631 202.659 313.025 202.659 324.42 189.518C335.815 176.377 347.21 176.377 358.604 189.518C369.999 202.659 381.394 202.659 392.788 189.518C404.183 176.377 415.578 176.377 426.973 189.518C438.367 202.659 449.762 202.659 461.157 189.518C472.552 176.377 483.946 176.377 495.341 189.518C506.736 202.659 518.13 202.659 529.525 189.518C540.92 176.377 552.315 176.377 563.709 189.518C575.104 202.659 586.499 202.659 597.894 189.518C609.288 176.377 620.683 176.377 632.078 189.518C643.472 202.659 654.867 202.659 666.262 189.518C677.657 176.377 689.051 176.377 700.446 189.518C711.841 202.659 723.236 202.659 734.63 189.518C746.025 176.377 757.42 176.377 768.814 189.518C780.209 202.659 791.604 202.659 802.999 189.518C814.393 176.377 825.788 176.377 837.183 189.518C848.578 202.659 859.972 202.659 871.367 189.518" stroke="url(#paint13_linear_1_320)" stroke-width="2"/>
<path d="M-496 303.212C-484.605 290.071 -473.211 290.071 -461.816 303.212C-450.421 316.353 -439.026 316.353 -427.632 303.212C-416.237 290.071 -404.842 290.071 -393.447 303.212C-382.053 316.353 -370.658 316.353 -359.263 303.212C-347.869 290.071 -336.474 290.071 -325.079 303.212C-313.684 316.353 -302.29 316.353 -290.895 303.212C-279.5 290.071 -268.106 290.071 -256.711 303.212C-245.316 316.353 -233.921 316.353 -222.527 303.212C-211.132 290.071 -199.737 290.071 -188.342 303.212C-176.948 316.353 -165.553 316.353 -154.158 303.212C-142.764 290.071 -131.369 290.071 -119.974 303.212C-108.579 316.353 -97.1846 316.353 -85.7899 303.212C-74.3952 290.071 -63.0005 290.071 -51.6058 303.212C-40.211 316.353 -28.8163 316.353 -17.4216 303.212C-6.02684 290.071 5.36786 290.071 16.7626 303.212C28.1573 316.353 39.552 316.353 50.9468 303.212C62.3415 290.071 73.7362 290.071 85.131 303.212C96.5257 316.353 107.92 316.353 119.315 303.212C130.71 290.071 142.105 290.071 153.499 303.212C164.894 316.353 176.289 316.353 187.683 303.212C199.078 290.071 210.473 290.071 221.868 303.212C233.262 316.353 244.657 316.353 256.052 303.212C267.447 290.071 278.841 290.071 290.236 303.212C301.631 316.353 313.025 316.353 324.42 303.212C335.815 290.071 347.21 290.071 358.604 303.212C369.999 316.353 381.394 316.353 392.788 303.212C404.183 290.071 415.578 290.071 426.973 303.212C438.367 316.353 449.762 316.353 461.157 303.212C472.552 290.071 483.946 290.071 495.341 303.212C506.736 316.353 518.13 316.353 529.525 303.212C540.92 290.071 552.315 290.071 563.709 303.212C575.104 316.353 586.499 316.353 597.894 303.212C609.288 290.071 620.683 290.071 632.078 303.212C643.472 316.353 654.867 316.353 666.262 303.212C677.657 290.071 689.051 290.071 700.446 303.212C711.841 316.353 723.236 316.353 734.63 303.212C746.025 290.071 757.42 290.071 768.814 303.212C780.209 316.353 791.604 316.353 802.999 303.212C814.393 290.071 825.788 290.071 837.183 303.212C848.578 316.353 859.972 316.353 871.367 303.212" stroke="url(#paint14_linear_1_320)" stroke-width="2"/>
<path d="M-496 92.066C-484.605 78.9249 -473.211 78.9249 -461.816 92.066C-450.421 105.207 -439.026 105.207 -427.632 92.066C-416.237 78.9249 -404.842 78.9249 -393.447 92.066C-382.053 105.207 -370.658 105.207 -359.263 92.066C-347.869 78.9249 -336.474 78.9249 -325.079 92.066C-313.684 105.207 -302.29 105.207 -290.895 92.066C-279.5 78.9249 -268.106 78.9249 -256.711 92.066C-245.316 105.207 -233.921 105.207 -222.527 92.066C-211.132 78.9249 -199.737 78.9249 -188.342 92.066C-176.948 105.207 -165.553 105.207 -154.158 92.066C-142.764 78.9249 -131.369 78.9249 -119.974 92.066C-108.579 105.207 -97.1846 105.207 -85.7899 92.066C-74.3952 78.9249 -63.0005 78.9249 -51.6058 92.066C-40.211 105.207 -28.8163 105.207 -17.4216 92.066C-6.02684 78.9249 5.36786 78.9249 16.7626 92.066C28.1573 105.207 39.552 105.207 50.9468 92.066C62.3415 78.9249 73.7362 78.9249 85.131 92.066C96.5257 105.207 107.92 105.207 119.315 92.066C130.71 78.9249 142.105 78.9249 153.499 92.066C164.894 105.207 176.289 105.207 187.683 92.066C199.078 78.9249 210.473 78.9249 221.868 92.066C233.262 105.207 244.657 105.207 256.052 92.066C267.447 78.9249 278.841 78.9249 290.236 92.066C301.631 105.207 313.025 105.207 324.42 92.066C335.815 78.9249 347.21 78.9249 358.604 92.066C369.999 105.207 381.394 105.207 392.788 92.066C404.183 78.9249 415.578 78.9249 426.973 92.066C438.367 105.207 449.762 105.207 461.157 92.066C472.552 78.9249 483.946 78.9249 495.341 92.066C506.736 105.207 518.13 105.207 529.525 92.066C540.92 78.9249 552.315 78.9249 563.709 92.066C575.104 105.207 586.499 105.207 597.894 92.066C609.288 78.9249 620.683 78.9249 632.078 92.066C643.472 105.207 654.867 105.207 666.262 92.066C677.657 78.9249 689.051 78.9249 700.446 92.066C711.841 105.207 723.236 105.207 734.63 92.066C746.025 78.9249 757.42 78.9249 768.814 92.066C780.209 105.207 791.604 105.207 802.999 92.066C814.393 78.9249 825.788 78.9249 837.183 92.066C848.578 105.207 859.972 105.207 871.367 92.066" stroke="url(#paint15_linear_1_320)" stroke-width="2"/>
<path d="M-496 205.76C-484.605 192.619 -473.211 192.619 -461.816 205.76C-450.421 218.901 -439.026 218.901 -427.632 205.76C-416.237 192.619 -404.842 192.619 -393.447 205.76C-382.053 218.901 -370.658 218.901 -359.263 205.76C-347.869 192.619 -336.474 192.619 -325.079 205.76C-313.684 218.901 -302.29 218.901 -290.895 205.76C-279.5 192.619 -268.106 192.619 -256.711 205.76C-245.316 218.901 -233.921 218.901 -222.527 205.76C-211.132 192.619 -199.737 192.619 -188.342 205.76C-176.948 218.901 -165.553 218.901 -154.158 205.76C-142.764 192.619 -131.369 192.619 -119.974 205.76C-108.579 218.901 -97.1846 218.901 -85.7899 205.76C-74.3952 192.619 -63.0005 192.619 -51.6058 205.76C-40.211 218.901 -28.8163 218.901 -17.4216 205.76C-6.02684 192.619 5.36786 192.619 16.7626 205.76C28.1573 218.901 39.552 218.901 50.9468 205.76C62.3415 192.619 73.7362 192.619 85.131 205.76C96.5257 218.901 107.92 218.901 119.315 205.76C130.71 192.619 142.105 192.619 153.499 205.76C164.894 218.901 176.289 218.901 187.683 205.76C199.078 192.619 210.473 192.619 221.868 205.76C233.262 218.901 244.657 218.901 256.052 205.76C267.447 192.619 278.841 192.619 290.236 205.76C301.631 218.901 313.025 218.901 324.42 205.76C335.815 192.619 347.21 192.619 358.604 205.76C369.999 218.901 381.394 218.901 392.788 205.76C404.183 192.619 415.578 192.619 426.973 205.76C438.367 218.901 449.762 218.901 461.157 205.76C472.552 192.619 483.946 192.619 495.341 205.76C506.736 218.901 518.13 218.901 529.525 205.76C540.92 192.619 552.315 192.619 563.709 205.76C575.104 218.901 586.499 218.901 597.894 205.76C609.288 192.619 620.683 192.619 632.078 205.76C643.472 218.901 654.867 218.901 666.262 205.76C677.657 192.619 689.051 192.619 700.446 205.76C711.841 218.901 723.236 218.901 734.63 205.76C746.025 192.619 757.42 192.619 768.814 205.76C780.209 218.901 791.604 218.901 802.999 205.76C814.393 192.619 825.788 192.619 837.183 205.76C848.578 218.901 859.972 218.901 871.367 205.76" stroke="url(#paint16_linear_1_320)" stroke-width="2"/>
<path d="M-496 319.454C-484.605 306.313 -473.211 306.313 -461.816 319.454C-450.421 332.596 -439.026 332.596 -427.632 319.454C-416.237 306.313 -404.842 306.313 -393.447 319.454C-382.053 332.596 -370.658 332.596 -359.263 319.454C-347.869 306.313 -336.474 306.313 -325.079 319.454C-313.684 332.596 -302.29 332.596 -290.895 319.454C-279.5 306.313 -268.106 306.313 -256.711 319.454C-245.316 332.596 -233.921 332.596 -222.527 319.454C-211.132 306.313 -199.737 306.313 -188.342 319.454C-176.948 332.596 -165.553 332.596 -154.158 319.454C-142.764 306.313 -131.369 306.313 -119.974 319.454C-108.579 332.596 -97.1846 332.596 -85.7899 319.454C-74.3952 306.313 -63.0005 306.313 -51.6058 319.454C-40.211 332.596 -28.8163 332.596 -17.4216 319.454C-6.02684 306.313 5.36786 306.313 16.7626 319.454C28.1573 332.596 39.552 332.596 50.9468 319.454C62.3415 306.313 73.7362 306.313 85.131 319.454C96.5257 332.596 107.92 332.596 119.315 319.454C130.71 306.313 142.105 306.313 153.499 319.454C164.894 332.596 176.289 332.596 187.683 319.454C199.078 306.313 210.473 306.313 221.868 319.454C233.262 332.596 244.657 332.596 256.052 319.454C267.447 306.313 278.841 306.313 290.236 319.454C301.631 332.596 313.025 332.596 324.42 319.454C335.815 306.313 347.21 306.313 358.604 319.454C369.999 332.596 381.394 332.596 392.788 319.454C404.183 306.313 415.578 306.313 426.973 319.454C438.367 332.596 449.762 332.596 461.157 319.454C472.552 306.313 483.946 306.313 495.341 319.454C506.736 332.596 518.13 332.596 529.525 319.454C540.92 306.313 552.315 306.313 563.709 319.454C575.104 332.596 586.499 332.596 597.894 319.454C609.288 306.313 620.683 306.313 632.078 319.454C643.472 332.596 654.867 332.596 666.262 319.454C677.657 306.313 689.051 306.313 700.446 319.454C711.841 332.596 723.236 332.596 734.63 319.454C746.025 306.313 757.42 306.313 768.814 319.454C780.209 332.596 791.604 332.596 802.999 319.454C814.393 306.313 825.788 306.313 837.183 319.454C848.578 332.596 859.972 332.596 871.367 319.454" stroke="url(#paint17_linear_1_320)" stroke-width="2"/>
<path d="M-496 108.308C-484.605 95.1669 -473.211 95.1669 -461.816 108.308C-450.421 121.449 -439.026 121.449 -427.632 108.308C-416.237 95.1669 -404.842 95.1669 -393.447 108.308C-382.053 121.449 -370.658 121.449 -359.263 108.308C-347.869 95.1669 -336.474 95.1669 -325.079 108.308C-313.684 121.449 -302.29 121.449 -290.895 108.308C-279.5 95.1669 -268.106 95.1669 -256.711 108.308C-245.316 121.449 -233.921 121.449 -222.527 108.308C-211.132 95.1669 -199.737 95.1669 -188.342 108.308C-176.948 121.449 -165.553 121.449 -154.158 108.308C-142.764 95.1669 -131.369 95.1669 -119.974 108.308C-108.579 121.449 -97.1846 121.449 -85.7899 108.308C-74.3952 95.1669 -63.0005 95.1669 -51.6058 108.308C-40.211 121.449 -28.8163 121.449 -17.4216 108.308C-6.02684 95.1669 5.36786 95.1669 16.7626 108.308C28.1573 121.449 39.552 121.449 50.9468 108.308C62.3415 95.1669 73.7362 95.1669 85.131 108.308C96.5257 121.449 107.92 121.449 119.315 108.308C130.71 95.1669 142.105 95.1669 153.499 108.308C164.894 121.449 176.289 121.449 187.683 108.308C199.078 95.1669 210.473 95.1669 221.868 108.308C233.262 121.449 244.657 121.449 256.052 108.308C267.447 95.1669 278.841 95.1669 290.236 108.308C301.631 121.449 313.025 121.449 324.42 108.308C335.815 95.1669 347.21 95.1669 358.604 108.308C369.999 121.449 381.394 121.449 392.788 108.308C404.183 95.1669 415.578 95.1669 426.973 108.308C438.367 121.449 449.762 121.449 461.157 108.308C472.552 95.1669 483.946 95.1669 495.341 108.308C506.736 121.449 518.13 121.449 529.525 108.308C540.92 95.1669 552.315 95.1669 563.709 108.308C575.104 121.449 586.499 121.449 597.894 108.308C609.288 95.1669 620.683 95.1669 632.078 108.308C643.472 121.449 654.867 121.449 666.262 108.308C677.657 95.1669 689.051 95.1669 700.446 108.308C711.841 121.449 723.236 121.449 734.63 108.308C746.025 95.1669 757.42 95.1669 768.814 108.308C780.209 121.449 791.604 121.449 802.999 108.308C814.393 95.1669 825.788 95.1669 837.183 108.308C848.578 121.449 859.972 121.449 871.367 108.308" stroke="url(#paint18_linear_1_320)" stroke-width="2"/>
<path d="M-496 222.002C-484.605 208.861 -473.211 208.861 -461.816 222.002C-450.421 235.143 -439.026 235.143 -427.632 222.002C-416.237 208.861 -404.842 208.861 -393.447 222.002C-382.053 235.143 -370.658 235.143 -359.263 222.002C-347.869 208.861 -336.474 208.861 -325.079 222.002C-313.684 235.143 -302.29 235.143 -290.895 222.002C-279.5 208.861 -268.106 208.861 -256.711 222.002C-245.316 235.143 -233.921 235.143 -222.527 222.002C-211.132 208.861 -199.737 208.861 -188.342 222.002C-176.948 235.143 -165.553 235.143 -154.158 222.002C-142.764 208.861 -131.369 208.861 -119.974 222.002C-108.579 235.143 -97.1846 235.143 -85.7899 222.002C-74.3952 208.861 -63.0005 208.861 -51.6058 222.002C-40.211 235.143 -28.8163 235.143 -17.4216 222.002C-6.02684 208.861 5.36786 208.861 16.7626 222.002C28.1573 235.143 39.552 235.143 50.9468 222.002C62.3415 208.861 73.7362 208.861 85.131 222.002C96.5257 235.143 107.92 235.143 119.315 222.002C130.71 208.861 142.105 208.861 153.499 222.002C164.894 235.143 176.289 235.143 187.683 222.002C199.078 208.861 210.473 208.861 221.868 222.002C233.262 235.143 244.657 235.143 256.052 222.002C267.447 208.861 278.841 208.861 290.236 222.002C301.631 235.143 313.025 235.143 324.42 222.002C335.815 208.861 347.21 208.861 358.604 222.002C369.999 235.143 381.394 235.143 392.788 222.002C404.183 208.861 415.578 208.861 426.973 222.002C438.367 235.143 449.762 235.143 461.157 222.002C472.552 208.861 483.946 208.861 495.341 222.002C506.736 235.143 518.13 235.143 529.525 222.002C540.92 208.861 552.315 208.861 563.709 222.002C575.104 235.143 586.499 235.143 597.894 222.002C609.288 208.861 620.683 208.861 632.078 222.002C643.472 235.143 654.867 235.143 666.262 222.002C677.657 208.861 689.051 208.861 700.446 222.002C711.841 235.143 723.236 235.143 734.63 222.002C746.025 208.861 757.42 208.861 768.814 222.002C780.209 235.143 791.604 235.143 802.999 222.002C814.393 208.861 825.788 208.861 837.183 222.002C848.578 235.143 859.972 235.143 871.367 222.002" stroke="url(#paint19_linear_1_320)" stroke-width="2"/>
<path d="M-496 335.697C-484.605 322.556 -473.211 322.556 -461.816 335.697C-450.421 348.838 -439.026 348.838 -427.632 335.697C-416.237 322.556 -404.842 322.556 -393.447 335.697C-382.053 348.838 -370.658 348.838 -359.263 335.697C-347.869 322.556 -336.474 322.556 -325.079 335.697C-313.684 348.838 -302.29 348.838 -290.895 335.697C-279.5 322.556 -268.106 322.556 -256.711 335.697C-245.316 348.838 -233.921 348.838 -222.527 335.697C-211.132 322.556 -199.737 322.556 -188.342 335.697C-176.948 348.838 -165.553 348.838 -154.158 335.697C-142.764 322.556 -131.369 322.556 -119.974 335.697C-108.579 348.838 -97.1846 348.838 -85.7899 335.697C-74.3952 322.556 -63.0005 322.556 -51.6058 335.697C-40.211 348.838 -28.8163 348.838 -17.4216 335.697C-6.02684 322.556 5.36786 322.556 16.7626 335.697C28.1573 348.838 39.552 348.838 50.9468 335.697C62.3415 322.556 73.7362 322.556 85.131 335.697C96.5257 348.838 107.92 348.838 119.315 335.697C130.71 322.556 142.105 322.556 153.499 335.697C164.894 348.838 176.289 348.838 187.683 335.697C199.078 322.556 210.473 322.556 221.868 335.697C233.262 348.838 244.657 348.838 256.052 335.697C267.447 322.556 278.841 322.556 290.236 335.697C301.631 348.838 313.025 348.838 324.42 335.697C335.815 322.556 347.21 322.556 358.604 335.697C369.999 348.838 381.394 348.838 392.788 335.697C404.183 322.556 415.578 322.556 426.973 335.697C438.367 348.838 449.762 348.838 461.157 335.697C472.552 322.556 483.946 322.556 495.341 335.697C506.736 348.838 518.13 348.838 529.525 335.697C540.92 322.556 552.315 322.556 563.709 335.697C575.104 348.838 586.499 348.838 597.894 335.697C609.288 322.556 620.683 322.556 632.078 335.697C643.472 348.838 654.867 348.838 666.262 335.697C677.657 322.556 689.051 322.556 700.446 335.697C711.841 348.838 723.236 348.838 734.63 335.697C746.025 322.556 757.42 322.556 768.814 335.697C780.209 348.838 791.604 348.838 802.999 335.697C814.393 322.556 825.788 322.556 837.183 335.697C848.578 348.838 859.972 348.838 871.367 335.697" stroke="url(#paint20_linear_1_320)" stroke-width="2"/>
</g>
<defs>
<linearGradient id="paint0_linear_1_320" x1="187.683" y1="1" x2="187.683" y2="20.7117" gradientUnits="userSpaceOnUse">
<stop stop-color="#003BD2"/>
<stop offset="1" stop-color="#1181E8"/>
</linearGradient>
<linearGradient id="paint1_linear_1_320" x1="187.683" y1="114.694" x2="187.683" y2="134.406" gradientUnits="userSpaceOnUse">
<stop stop-color="#003BD2"/>
<stop offset="1" stop-color="#1181E8"/>
</linearGradient>
<linearGradient id="paint2_linear_1_320" x1="187.683" y1="228.389" x2="187.683" y2="248.1" gradientUnits="userSpaceOnUse">
<stop stop-color="#003BD2"/>
<stop offset="1" stop-color="#1181E8"/>
</linearGradient>
<linearGradient id="paint3_linear_1_320" x1="187.683" y1="17.2419" x2="187.683" y2="36.9536" gradientUnits="userSpaceOnUse">
<stop stop-color="#003BD2"/>
<stop offset="1" stop-color="#1181E8"/>
</linearGradient>
<linearGradient id="paint4_linear_1_320" x1="187.683" y1="130.937" x2="187.683" y2="150.648" gradientUnits="userSpaceOnUse">
<stop stop-color="#003BD2"/>
<stop offset="1" stop-color="#1181E8"/>
</linearGradient>
<linearGradient id="paint5_linear_1_320" x1="187.683" y1="244.63" x2="187.683" y2="264.342" gradientUnits="userSpaceOnUse">
<stop stop-color="#003BD2"/>
<stop offset="1" stop-color="#1181E8"/>
</linearGradient>
<linearGradient id="paint6_linear_1_320" x1="187.683" y1="33.4844" x2="187.683" y2="53.196" gradientUnits="userSpaceOnUse">
<stop stop-color="#003BD2"/>
<stop offset="1" stop-color="#1181E8"/>
</linearGradient>
<linearGradient id="paint7_linear_1_320" x1="187.683" y1="147.178" x2="187.683" y2="166.889" gradientUnits="userSpaceOnUse">
<stop stop-color="#003BD2"/>
<stop offset="1" stop-color="#1181E8"/>
</linearGradient>
<linearGradient id="paint8_linear_1_320" x1="187.683" y1="260.872" x2="187.683" y2="280.584" gradientUnits="userSpaceOnUse">
<stop stop-color="#003BD2"/>
<stop offset="1" stop-color="#1181E8"/>
</linearGradient>
<linearGradient id="paint9_linear_1_320" x1="187.683" y1="49.7256" x2="187.683" y2="69.4372" gradientUnits="userSpaceOnUse">
<stop stop-color="#003BD2"/>
<stop offset="1" stop-color="#1181E8"/>
</linearGradient>
<linearGradient id="paint10_linear_1_320" x1="187.683" y1="163.42" x2="187.683" y2="183.132" gradientUnits="userSpaceOnUse">
<stop stop-color="#003BD2"/>
<stop offset="1" stop-color="#1181E8"/>
</linearGradient>
<linearGradient id="paint11_linear_1_320" x1="187.683" y1="277.114" x2="187.683" y2="296.826" gradientUnits="userSpaceOnUse">
<stop stop-color="#003BD2"/>
<stop offset="1" stop-color="#1181E8"/>
</linearGradient>
<linearGradient id="paint12_linear_1_320" x1="187.683" y1="65.9678" x2="187.683" y2="85.6794" gradientUnits="userSpaceOnUse">
<stop stop-color="#003BD2"/>
<stop offset="1" stop-color="#1181E8"/>
</linearGradient>
<linearGradient id="paint13_linear_1_320" x1="187.683" y1="179.662" x2="187.683" y2="199.374" gradientUnits="userSpaceOnUse">
<stop stop-color="#003BD2"/>
<stop offset="1" stop-color="#1181E8"/>
</linearGradient>
<linearGradient id="paint14_linear_1_320" x1="187.683" y1="293.356" x2="187.683" y2="313.068" gradientUnits="userSpaceOnUse">
<stop stop-color="#003BD2"/>
<stop offset="1" stop-color="#1181E8"/>
</linearGradient>
<linearGradient id="paint15_linear_1_320" x1="187.683" y1="82.2102" x2="187.683" y2="101.922" gradientUnits="userSpaceOnUse">
<stop stop-color="#003BD2"/>
<stop offset="1" stop-color="#1181E8"/>
</linearGradient>
<linearGradient id="paint16_linear_1_320" x1="187.683" y1="195.904" x2="187.683" y2="215.616" gradientUnits="userSpaceOnUse">
<stop stop-color="#003BD2"/>
<stop offset="1" stop-color="#1181E8"/>
</linearGradient>
<linearGradient id="paint17_linear_1_320" x1="187.683" y1="309.599" x2="187.683" y2="329.31" gradientUnits="userSpaceOnUse">
<stop stop-color="#003BD2"/>
<stop offset="1" stop-color="#1181E8"/>
</linearGradient>
<linearGradient id="paint18_linear_1_320" x1="187.683" y1="98.4521" x2="187.683" y2="118.164" gradientUnits="userSpaceOnUse">
<stop stop-color="#003BD2"/>
<stop offset="1" stop-color="#1181E8"/>
</linearGradient>
<linearGradient id="paint19_linear_1_320" x1="187.683" y1="212.146" x2="187.683" y2="231.858" gradientUnits="userSpaceOnUse">
<stop stop-color="#003BD2"/>
<stop offset="1" stop-color="#1181E8"/>
</linearGradient>
<linearGradient id="paint20_linear_1_320" x1="187.683" y1="325.841" x2="187.683" y2="345.552" gradientUnits="userSpaceOnUse">
<stop stop-color="#003BD2"/>
<stop offset="1" stop-color="#1181E8"/>
</linearGradient>
</defs>
</svg>
