<svg width="1920" height="850" viewBox="0 0 1920 850" fill="none" xmlns="http://www.w3.org/2000/svg">
<g opacity="0.25">
<path d="M0 15.2038C16 -3.73458 32 -3.73458 48 15.2038C64 34.1421 80 34.1421 96 15.2038C112 -3.73458 128 -3.73458 144 15.2038C160 34.1421 176 34.1421 192 15.2038C208 -3.73458 224 -3.73458 240 15.2038C256 34.1421 272 34.1421 288 15.2038C304 -3.73458 320 -3.73458 336 15.2038C352 34.1421 368 34.1421 384 15.2038C400 -3.73458 416 -3.73458 432 15.2038C448 34.1421 464 34.1421 480 15.2038C496 -3.73458 512 -3.73458 528 15.2038C544 34.1421 560 34.1421 576 15.2038C592 -3.73458 608 -3.73458 624 15.2038C640 34.1421 656 34.1421 672 15.2038C688 -3.73458 704 -3.73458 720 15.2038C736 34.1421 752 34.1421 768 15.2038C784 -3.73458 800 -3.73458 816 15.2038C832 34.1421 848 34.1421 864 15.2038C880 -3.73458 896 -3.73458 912 15.2038C928 34.1421 944 34.1421 960 15.2038C976 -3.73458 992 -3.73458 1008 15.2038C1024 34.1421 1040 34.1421 1056 15.2038C1072 -3.73458 1088 -3.73458 1104 15.2038C1120 34.1421 1136 34.1421 1152 15.2038C1168 -3.73458 1184 -3.73458 1200 15.2038C1216 34.1421 1232 34.1421 1248 15.2038C1264 -3.73458 1280 -3.73458 1296 15.2038C1312 34.1421 1328 34.1421 1344 15.2038C1360 -3.73458 1376 -3.73458 1392 15.2038C1408 34.1421 1424 34.1421 1440 15.2038C1456 -3.73458 1472 -3.73458 1488 15.2038C1504 34.1421 1520 34.1421 1536 15.2038C1552 -3.73458 1568 -3.73458 1584 15.2038C1600 34.1421 1616 34.1421 1632 15.2038C1648 -3.73458 1664 -3.73458 1680 15.2038C1696 34.1421 1712 34.1421 1728 15.2038C1744 -3.73458 1760 -3.73458 1776 15.2038C1792 34.1421 1808 34.1421 1824 15.2038C1840 -3.73458 1856 -3.73458 1872 15.2038C1888 34.1421 1904 34.1421 1920 15.2038" stroke="url(#paint0_linear_175_7055)" stroke-width="2"/>
<path d="M0 179.054C16 160.116 32 160.116 48 179.054C64 197.993 80 197.993 96 179.054C112 160.116 128 160.116 144 179.054C160 197.993 176 197.993 192 179.054C208 160.116 224 160.116 240 179.054C256 197.993 272 197.993 288 179.054C304 160.116 320 160.116 336 179.054C352 197.993 368 197.993 384 179.054C400 160.116 416 160.116 432 179.054C448 197.993 464 197.993 480 179.054C496 160.116 512 160.116 528 179.054C544 197.993 560 197.993 576 179.054C592 160.116 608 160.116 624 179.054C640 197.993 656 197.993 672 179.054C688 160.116 704 160.116 720 179.054C736 197.993 752 197.993 768 179.054C784 160.116 800 160.116 816 179.054C832 197.993 848 197.993 864 179.054C880 160.116 896 160.116 912 179.054C928 197.993 944 197.993 960 179.054C976 160.116 992 160.116 1008 179.054C1024 197.993 1040 197.993 1056 179.054C1072 160.116 1088 160.116 1104 179.054C1120 197.993 1136 197.993 1152 179.054C1168 160.116 1184 160.116 1200 179.054C1216 197.993 1232 197.993 1248 179.054C1264 160.116 1280 160.116 1296 179.054C1312 197.993 1328 197.993 1344 179.054C1360 160.116 1376 160.116 1392 179.054C1408 197.993 1424 197.993 1440 179.054C1456 160.116 1472 160.116 1488 179.054C1504 197.993 1520 197.993 1536 179.054C1552 160.116 1568 160.116 1584 179.054C1600 197.993 1616 197.993 1632 179.054C1648 160.116 1664 160.116 1680 179.054C1696 197.993 1712 197.993 1728 179.054C1744 160.116 1760 160.116 1776 179.054C1792 197.993 1808 197.993 1824 179.054C1840 160.116 1856 160.116 1872 179.054C1888 197.993 1904 197.993 1920 179.054" stroke="url(#paint1_linear_175_7055)" stroke-width="2"/>
<path d="M0 342.905C16 323.967 32 323.967 48 342.905C64 361.843 80 361.843 96 342.905C112 323.967 128 323.967 144 342.905C160 361.843 176 361.843 192 342.905C208 323.967 224 323.967 240 342.905C256 361.843 272 361.843 288 342.905C304 323.967 320 323.967 336 342.905C352 361.843 368 361.843 384 342.905C400 323.967 416 323.967 432 342.905C448 361.843 464 361.843 480 342.905C496 323.967 512 323.967 528 342.905C544 361.843 560 361.843 576 342.905C592 323.967 608 323.967 624 342.905C640 361.843 656 361.843 672 342.905C688 323.967 704 323.967 720 342.905C736 361.843 752 361.843 768 342.905C784 323.967 800 323.967 816 342.905C832 361.843 848 361.843 864 342.905C880 323.967 896 323.967 912 342.905C928 361.843 944 361.843 960 342.905C976 323.967 992 323.967 1008 342.905C1024 361.843 1040 361.843 1056 342.905C1072 323.967 1088 323.967 1104 342.905C1120 361.843 1136 361.843 1152 342.905C1168 323.967 1184 323.967 1200 342.905C1216 361.843 1232 361.843 1248 342.905C1264 323.967 1280 323.967 1296 342.905C1312 361.843 1328 361.843 1344 342.905C1360 323.967 1376 323.967 1392 342.905C1408 361.843 1424 361.843 1440 342.905C1456 323.967 1472 323.967 1488 342.905C1504 361.843 1520 361.843 1536 342.905C1552 323.967 1568 323.967 1584 342.905C1600 361.843 1616 361.843 1632 342.905C1648 323.967 1664 323.967 1680 342.905C1696 361.843 1712 361.843 1728 342.905C1744 323.967 1760 323.967 1776 342.905C1792 361.843 1808 361.843 1824 342.905C1840 323.967 1856 323.967 1872 342.905C1888 361.843 1904 361.843 1920 342.905" stroke="url(#paint2_linear_175_7055)" stroke-width="2"/>
<path d="M0 38.611C16 19.6726 32 19.6726 48 38.611C64 57.5493 80 57.5493 96 38.611C112 19.6726 128 19.6726 144 38.611C160 57.5493 176 57.5493 192 38.611C208 19.6726 224 19.6726 240 38.611C256 57.5493 272 57.5493 288 38.611C304 19.6726 320 19.6726 336 38.611C352 57.5493 368 57.5493 384 38.611C400 19.6726 416 19.6726 432 38.611C448 57.5493 464 57.5493 480 38.611C496 19.6726 512 19.6726 528 38.611C544 57.5493 560 57.5493 576 38.611C592 19.6726 608 19.6726 624 38.611C640 57.5493 656 57.5493 672 38.611C688 19.6726 704 19.6726 720 38.611C736 57.5493 752 57.5493 768 38.611C784 19.6726 800 19.6726 816 38.611C832 57.5493 848 57.5493 864 38.611C880 19.6726 896 19.6726 912 38.611C928 57.5493 944 57.5493 960 38.611C976 19.6726 992 19.6726 1008 38.611C1024 57.5493 1040 57.5493 1056 38.611C1072 19.6726 1088 19.6726 1104 38.611C1120 57.5493 1136 57.5493 1152 38.611C1168 19.6726 1184 19.6726 1200 38.611C1216 57.5493 1232 57.5493 1248 38.611C1264 19.6726 1280 19.6726 1296 38.611C1312 57.5493 1328 57.5493 1344 38.611C1360 19.6726 1376 19.6726 1392 38.611C1408 57.5493 1424 57.5493 1440 38.611C1456 19.6726 1472 19.6726 1488 38.611C1504 57.5493 1520 57.5493 1536 38.611C1552 19.6726 1568 19.6726 1584 38.611C1600 57.5493 1616 57.5493 1632 38.611C1648 19.6726 1664 19.6726 1680 38.611C1696 57.5493 1712 57.5493 1728 38.611C1744 19.6726 1760 19.6726 1776 38.611C1792 57.5493 1808 57.5493 1824 38.611C1840 19.6726 1856 19.6726 1872 38.611C1888 57.5493 1904 57.5493 1920 38.611" stroke="url(#paint3_linear_175_7055)" stroke-width="2"/>
<path d="M0 202.462C16 183.523 32 183.523 48 202.462C64 221.4 80 221.4 96 202.462C112 183.523 128 183.523 144 202.462C160 221.4 176 221.4 192 202.462C208 183.523 224 183.523 240 202.462C256 221.4 272 221.4 288 202.462C304 183.523 320 183.523 336 202.462C352 221.4 368 221.4 384 202.462C400 183.523 416 183.523 432 202.462C448 221.4 464 221.4 480 202.462C496 183.523 512 183.523 528 202.462C544 221.4 560 221.4 576 202.462C592 183.523 608 183.523 624 202.462C640 221.4 656 221.4 672 202.462C688 183.523 704 183.523 720 202.462C736 221.4 752 221.4 768 202.462C784 183.523 800 183.523 816 202.462C832 221.4 848 221.4 864 202.462C880 183.523 896 183.523 912 202.462C928 221.4 944 221.4 960 202.462C976 183.523 992 183.523 1008 202.462C1024 221.4 1040 221.4 1056 202.462C1072 183.523 1088 183.523 1104 202.462C1120 221.4 1136 221.4 1152 202.462C1168 183.523 1184 183.523 1200 202.462C1216 221.4 1232 221.4 1248 202.462C1264 183.523 1280 183.523 1296 202.462C1312 221.4 1328 221.4 1344 202.462C1360 183.523 1376 183.523 1392 202.462C1408 221.4 1424 221.4 1440 202.462C1456 183.523 1472 183.523 1488 202.462C1504 221.4 1520 221.4 1536 202.462C1552 183.523 1568 183.523 1584 202.462C1600 221.4 1616 221.4 1632 202.462C1648 183.523 1664 183.523 1680 202.462C1696 221.4 1712 221.4 1728 202.462C1744 183.523 1760 183.523 1776 202.462C1792 221.4 1808 221.4 1824 202.462C1840 183.523 1856 183.523 1872 202.462C1888 221.4 1904 221.4 1920 202.462" stroke="url(#paint4_linear_175_7055)" stroke-width="2"/>
<path d="M0 366.312C16 347.374 32 347.374 48 366.312C64 385.25 80 385.25 96 366.312C112 347.374 128 347.374 144 366.312C160 385.25 176 385.25 192 366.312C208 347.374 224 347.374 240 366.312C256 385.25 272 385.25 288 366.312C304 347.374 320 347.374 336 366.312C352 385.25 368 385.25 384 366.312C400 347.374 416 347.374 432 366.312C448 385.25 464 385.25 480 366.312C496 347.374 512 347.374 528 366.312C544 385.25 560 385.25 576 366.312C592 347.374 608 347.374 624 366.312C640 385.25 656 385.25 672 366.312C688 347.374 704 347.374 720 366.312C736 385.25 752 385.25 768 366.312C784 347.374 800 347.374 816 366.312C832 385.25 848 385.25 864 366.312C880 347.374 896 347.374 912 366.312C928 385.25 944 385.25 960 366.312C976 347.374 992 347.374 1008 366.312C1024 385.25 1040 385.25 1056 366.312C1072 347.374 1088 347.374 1104 366.312C1120 385.25 1136 385.25 1152 366.312C1168 347.374 1184 347.374 1200 366.312C1216 385.25 1232 385.25 1248 366.312C1264 347.374 1280 347.374 1296 366.312C1312 385.25 1328 385.25 1344 366.312C1360 347.374 1376 347.374 1392 366.312C1408 385.25 1424 385.25 1440 366.312C1456 347.374 1472 347.374 1488 366.312C1504 385.25 1520 385.25 1536 366.312C1552 347.374 1568 347.374 1584 366.312C1600 385.25 1616 385.25 1632 366.312C1648 347.374 1664 347.374 1680 366.312C1696 385.25 1712 385.25 1728 366.312C1744 347.374 1760 347.374 1776 366.312C1792 385.25 1808 385.25 1824 366.312C1840 347.374 1856 347.374 1872 366.312C1888 385.25 1904 385.25 1920 366.312" stroke="url(#paint5_linear_175_7055)" stroke-width="2"/>
<path d="M0 62.0182C16 43.0799 32 43.0799 48 62.0182C64 80.9565 80 80.9565 96 62.0182C112 43.0799 128 43.0799 144 62.0182C160 80.9565 176 80.9565 192 62.0182C208 43.0799 224 43.0799 240 62.0182C256 80.9565 272 80.9565 288 62.0182C304 43.0799 320 43.0799 336 62.0182C352 80.9565 368 80.9565 384 62.0182C400 43.0799 416 43.0799 432 62.0182C448 80.9565 464 80.9565 480 62.0182C496 43.0799 512 43.0799 528 62.0182C544 80.9565 560 80.9565 576 62.0182C592 43.0799 608 43.0799 624 62.0182C640 80.9565 656 80.9565 672 62.0182C688 43.0799 704 43.0799 720 62.0182C736 80.9565 752 80.9565 768 62.0182C784 43.0799 800 43.0799 816 62.0182C832 80.9565 848 80.9565 864 62.0182C880 43.0799 896 43.0799 912 62.0182C928 80.9565 944 80.9565 960 62.0182C976 43.0799 992 43.0799 1008 62.0182C1024 80.9565 1040 80.9565 1056 62.0182C1072 43.0799 1088 43.0799 1104 62.0182C1120 80.9565 1136 80.9565 1152 62.0182C1168 43.0799 1184 43.0799 1200 62.0182C1216 80.9565 1232 80.9565 1248 62.0182C1264 43.0799 1280 43.0799 1296 62.0182C1312 80.9565 1328 80.9565 1344 62.0182C1360 43.0799 1376 43.0799 1392 62.0182C1408 80.9565 1424 80.9565 1440 62.0182C1456 43.0799 1472 43.0799 1488 62.0182C1504 80.9565 1520 80.9565 1536 62.0182C1552 43.0799 1568 43.0799 1584 62.0182C1600 80.9565 1616 80.9565 1632 62.0182C1648 43.0799 1664 43.0799 1680 62.0182C1696 80.9565 1712 80.9565 1728 62.0182C1744 43.0799 1760 43.0799 1776 62.0182C1792 80.9565 1808 80.9565 1824 62.0182C1840 43.0799 1856 43.0799 1872 62.0182C1888 80.9565 1904 80.9565 1920 62.0182" stroke="url(#paint6_linear_175_7055)" stroke-width="2"/>
<path d="M0 225.869C16 206.93 32 206.93 48 225.869C64 244.807 80 244.807 96 225.869C112 206.93 128 206.93 144 225.869C160 244.807 176 244.807 192 225.869C208 206.93 224 206.93 240 225.869C256 244.807 272 244.807 288 225.869C304 206.93 320 206.93 336 225.869C352 244.807 368 244.807 384 225.869C400 206.93 416 206.93 432 225.869C448 244.807 464 244.807 480 225.869C496 206.93 512 206.93 528 225.869C544 244.807 560 244.807 576 225.869C592 206.93 608 206.93 624 225.869C640 244.807 656 244.807 672 225.869C688 206.93 704 206.93 720 225.869C736 244.807 752 244.807 768 225.869C784 206.93 800 206.93 816 225.869C832 244.807 848 244.807 864 225.869C880 206.93 896 206.93 912 225.869C928 244.807 944 244.807 960 225.869C976 206.93 992 206.93 1008 225.869C1024 244.807 1040 244.807 1056 225.869C1072 206.93 1088 206.93 1104 225.869C1120 244.807 1136 244.807 1152 225.869C1168 206.93 1184 206.93 1200 225.869C1216 244.807 1232 244.807 1248 225.869C1264 206.93 1280 206.93 1296 225.869C1312 244.807 1328 244.807 1344 225.869C1360 206.93 1376 206.93 1392 225.869C1408 244.807 1424 244.807 1440 225.869C1456 206.93 1472 206.93 1488 225.869C1504 244.807 1520 244.807 1536 225.869C1552 206.93 1568 206.93 1584 225.869C1600 244.807 1616 244.807 1632 225.869C1648 206.93 1664 206.93 1680 225.869C1696 244.807 1712 244.807 1728 225.869C1744 206.93 1760 206.93 1776 225.869C1792 244.807 1808 244.807 1824 225.869C1840 206.93 1856 206.93 1872 225.869C1888 244.807 1904 244.807 1920 225.869" stroke="url(#paint7_linear_175_7055)" stroke-width="2"/>
<path d="M0 389.719C16 370.781 32 370.781 48 389.719C64 408.658 80 408.658 96 389.719C112 370.781 128 370.781 144 389.719C160 408.658 176 408.658 192 389.719C208 370.781 224 370.781 240 389.719C256 408.658 272 408.658 288 389.719C304 370.781 320 370.781 336 389.719C352 408.658 368 408.658 384 389.719C400 370.781 416 370.781 432 389.719C448 408.658 464 408.658 480 389.719C496 370.781 512 370.781 528 389.719C544 408.658 560 408.658 576 389.719C592 370.781 608 370.781 624 389.719C640 408.658 656 408.658 672 389.719C688 370.781 704 370.781 720 389.719C736 408.658 752 408.658 768 389.719C784 370.781 800 370.781 816 389.719C832 408.658 848 408.658 864 389.719C880 370.781 896 370.781 912 389.719C928 408.658 944 408.658 960 389.719C976 370.781 992 370.781 1008 389.719C1024 408.658 1040 408.658 1056 389.719C1072 370.781 1088 370.781 1104 389.719C1120 408.658 1136 408.658 1152 389.719C1168 370.781 1184 370.781 1200 389.719C1216 408.658 1232 408.658 1248 389.719C1264 370.781 1280 370.781 1296 389.719C1312 408.658 1328 408.658 1344 389.719C1360 370.781 1376 370.781 1392 389.719C1408 408.658 1424 408.658 1440 389.719C1456 370.781 1472 370.781 1488 389.719C1504 408.658 1520 408.658 1536 389.719C1552 370.781 1568 370.781 1584 389.719C1600 408.658 1616 408.658 1632 389.719C1648 370.781 1664 370.781 1680 389.719C1696 408.658 1712 408.658 1728 389.719C1744 370.781 1760 370.781 1776 389.719C1792 408.658 1808 408.658 1824 389.719C1840 370.781 1856 370.781 1872 389.719C1888 408.658 1904 408.658 1920 389.719" stroke="url(#paint8_linear_175_7055)" stroke-width="2"/>
<path d="M0 85.4254C16 66.4871 32 66.4871 48 85.4254C64 104.364 80 104.364 96 85.4254C112 66.4871 128 66.4871 144 85.4254C160 104.364 176 104.364 192 85.4254C208 66.4871 224 66.4871 240 85.4254C256 104.364 272 104.364 288 85.4254C304 66.4871 320 66.4871 336 85.4254C352 104.364 368 104.364 384 85.4254C400 66.4871 416 66.4871 432 85.4254C448 104.364 464 104.364 480 85.4254C496 66.4871 512 66.4871 528 85.4254C544 104.364 560 104.364 576 85.4254C592 66.4871 608 66.4871 624 85.4254C640 104.364 656 104.364 672 85.4254C688 66.4871 704 66.4871 720 85.4254C736 104.364 752 104.364 768 85.4254C784 66.4871 800 66.4871 816 85.4254C832 104.364 848 104.364 864 85.4254C880 66.4871 896 66.4871 912 85.4254C928 104.364 944 104.364 960 85.4254C976 66.4871 992 66.4871 1008 85.4254C1024 104.364 1040 104.364 1056 85.4254C1072 66.4871 1088 66.4871 1104 85.4254C1120 104.364 1136 104.364 1152 85.4254C1168 66.4871 1184 66.4871 1200 85.4254C1216 104.364 1232 104.364 1248 85.4254C1264 66.4871 1280 66.4871 1296 85.4254C1312 104.364 1328 104.364 1344 85.4254C1360 66.4871 1376 66.4871 1392 85.4254C1408 104.364 1424 104.364 1440 85.4254C1456 66.4871 1472 66.4871 1488 85.4254C1504 104.364 1520 104.364 1536 85.4254C1552 66.4871 1568 66.4871 1584 85.4254C1600 104.364 1616 104.364 1632 85.4254C1648 66.4871 1664 66.4871 1680 85.4254C1696 104.364 1712 104.364 1728 85.4254C1744 66.4871 1760 66.4871 1776 85.4254C1792 104.364 1808 104.364 1824 85.4254C1840 66.4871 1856 66.4871 1872 85.4254C1888 104.364 1904 104.364 1920 85.4254" stroke="url(#paint9_linear_175_7055)" stroke-width="2"/>
<path d="M0 249.276C16 230.338 32 230.338 48 249.276C64 268.214 80 268.214 96 249.276C112 230.338 128 230.338 144 249.276C160 268.214 176 268.214 192 249.276C208 230.338 224 230.338 240 249.276C256 268.214 272 268.214 288 249.276C304 230.338 320 230.338 336 249.276C352 268.214 368 268.214 384 249.276C400 230.338 416 230.338 432 249.276C448 268.214 464 268.214 480 249.276C496 230.338 512 230.338 528 249.276C544 268.214 560 268.214 576 249.276C592 230.338 608 230.338 624 249.276C640 268.214 656 268.214 672 249.276C688 230.338 704 230.338 720 249.276C736 268.214 752 268.214 768 249.276C784 230.338 800 230.338 816 249.276C832 268.214 848 268.214 864 249.276C880 230.338 896 230.338 912 249.276C928 268.214 944 268.214 960 249.276C976 230.338 992 230.338 1008 249.276C1024 268.214 1040 268.214 1056 249.276C1072 230.338 1088 230.338 1104 249.276C1120 268.214 1136 268.214 1152 249.276C1168 230.338 1184 230.338 1200 249.276C1216 268.214 1232 268.214 1248 249.276C1264 230.338 1280 230.338 1296 249.276C1312 268.214 1328 268.214 1344 249.276C1360 230.338 1376 230.338 1392 249.276C1408 268.214 1424 268.214 1440 249.276C1456 230.338 1472 230.338 1488 249.276C1504 268.214 1520 268.214 1536 249.276C1552 230.338 1568 230.338 1584 249.276C1600 268.214 1616 268.214 1632 249.276C1648 230.338 1664 230.338 1680 249.276C1696 268.214 1712 268.214 1728 249.276C1744 230.338 1760 230.338 1776 249.276C1792 268.214 1808 268.214 1824 249.276C1840 230.338 1856 230.338 1872 249.276C1888 268.214 1904 268.214 1920 249.276" stroke="url(#paint10_linear_175_7055)" stroke-width="2"/>
<path d="M0 413.127C16 394.188 32 394.188 48 413.127C64 432.065 80 432.065 96 413.127C112 394.188 128 394.188 144 413.127C160 432.065 176 432.065 192 413.127C208 394.188 224 394.188 240 413.127C256 432.065 272 432.065 288 413.127C304 394.188 320 394.188 336 413.127C352 432.065 368 432.065 384 413.127C400 394.188 416 394.188 432 413.127C448 432.065 464 432.065 480 413.127C496 394.188 512 394.188 528 413.127C544 432.065 560 432.065 576 413.127C592 394.188 608 394.188 624 413.127C640 432.065 656 432.065 672 413.127C688 394.188 704 394.188 720 413.127C736 432.065 752 432.065 768 413.127C784 394.188 800 394.188 816 413.127C832 432.065 848 432.065 864 413.127C880 394.188 896 394.188 912 413.127C928 432.065 944 432.065 960 413.127C976 394.188 992 394.188 1008 413.127C1024 432.065 1040 432.065 1056 413.127C1072 394.188 1088 394.188 1104 413.127C1120 432.065 1136 432.065 1152 413.127C1168 394.188 1184 394.188 1200 413.127C1216 432.065 1232 432.065 1248 413.127C1264 394.188 1280 394.188 1296 413.127C1312 432.065 1328 432.065 1344 413.127C1360 394.188 1376 394.188 1392 413.127C1408 432.065 1424 432.065 1440 413.127C1456 394.188 1472 394.188 1488 413.127C1504 432.065 1520 432.065 1536 413.127C1552 394.188 1568 394.188 1584 413.127C1600 432.065 1616 432.065 1632 413.127C1648 394.188 1664 394.188 1680 413.127C1696 432.065 1712 432.065 1728 413.127C1744 394.188 1760 394.188 1776 413.127C1792 432.065 1808 432.065 1824 413.127C1840 394.188 1856 394.188 1872 413.127C1888 432.065 1904 432.065 1920 413.127" stroke="url(#paint11_linear_175_7055)" stroke-width="2"/>
<path d="M0 108.833C16 89.8943 32 89.8943 48 108.833C64 127.771 80 127.771 96 108.833C112 89.8943 128 89.8943 144 108.833C160 127.771 176 127.771 192 108.833C208 89.8943 224 89.8943 240 108.833C256 127.771 272 127.771 288 108.833C304 89.8943 320 89.8943 336 108.833C352 127.771 368 127.771 384 108.833C400 89.8943 416 89.8943 432 108.833C448 127.771 464 127.771 480 108.833C496 89.8943 512 89.8943 528 108.833C544 127.771 560 127.771 576 108.833C592 89.8943 608 89.8943 624 108.833C640 127.771 656 127.771 672 108.833C688 89.8943 704 89.8943 720 108.833C736 127.771 752 127.771 768 108.833C784 89.8943 800 89.8943 816 108.833C832 127.771 848 127.771 864 108.833C880 89.8943 896 89.8943 912 108.833C928 127.771 944 127.771 960 108.833C976 89.8943 992 89.8943 1008 108.833C1024 127.771 1040 127.771 1056 108.833C1072 89.8943 1088 89.8943 1104 108.833C1120 127.771 1136 127.771 1152 108.833C1168 89.8943 1184 89.8943 1200 108.833C1216 127.771 1232 127.771 1248 108.833C1264 89.8943 1280 89.8943 1296 108.833C1312 127.771 1328 127.771 1344 108.833C1360 89.8943 1376 89.8943 1392 108.833C1408 127.771 1424 127.771 1440 108.833C1456 89.8943 1472 89.8943 1488 108.833C1504 127.771 1520 127.771 1536 108.833C1552 89.8943 1568 89.8943 1584 108.833C1600 127.771 1616 127.771 1632 108.833C1648 89.8943 1664 89.8943 1680 108.833C1696 127.771 1712 127.771 1728 108.833C1744 89.8943 1760 89.8943 1776 108.833C1792 127.771 1808 127.771 1824 108.833C1840 89.8943 1856 89.8943 1872 108.833C1888 127.771 1904 127.771 1920 108.833" stroke="url(#paint12_linear_175_7055)" stroke-width="2"/>
<path d="M0 272.683C16 253.745 32 253.745 48 272.683C64 291.622 80 291.622 96 272.683C112 253.745 128 253.745 144 272.683C160 291.622 176 291.622 192 272.683C208 253.745 224 253.745 240 272.683C256 291.622 272 291.622 288 272.683C304 253.745 320 253.745 336 272.683C352 291.622 368 291.622 384 272.683C400 253.745 416 253.745 432 272.683C448 291.622 464 291.622 480 272.683C496 253.745 512 253.745 528 272.683C544 291.622 560 291.622 576 272.683C592 253.745 608 253.745 624 272.683C640 291.622 656 291.622 672 272.683C688 253.745 704 253.745 720 272.683C736 291.622 752 291.622 768 272.683C784 253.745 800 253.745 816 272.683C832 291.622 848 291.622 864 272.683C880 253.745 896 253.745 912 272.683C928 291.622 944 291.622 960 272.683C976 253.745 992 253.745 1008 272.683C1024 291.622 1040 291.622 1056 272.683C1072 253.745 1088 253.745 1104 272.683C1120 291.622 1136 291.622 1152 272.683C1168 253.745 1184 253.745 1200 272.683C1216 291.622 1232 291.622 1248 272.683C1264 253.745 1280 253.745 1296 272.683C1312 291.622 1328 291.622 1344 272.683C1360 253.745 1376 253.745 1392 272.683C1408 291.622 1424 291.622 1440 272.683C1456 253.745 1472 253.745 1488 272.683C1504 291.622 1520 291.622 1536 272.683C1552 253.745 1568 253.745 1584 272.683C1600 291.622 1616 291.622 1632 272.683C1648 253.745 1664 253.745 1680 272.683C1696 291.622 1712 291.622 1728 272.683C1744 253.745 1760 253.745 1776 272.683C1792 291.622 1808 291.622 1824 272.683C1840 253.745 1856 253.745 1872 272.683C1888 291.622 1904 291.622 1920 272.683" stroke="url(#paint13_linear_175_7055)" stroke-width="2"/>
<path d="M0 436.534C16 417.595 32 417.595 48 436.534C64 455.472 80 455.472 96 436.534C112 417.595 128 417.595 144 436.534C160 455.472 176 455.472 192 436.534C208 417.595 224 417.595 240 436.534C256 455.472 272 455.472 288 436.534C304 417.595 320 417.595 336 436.534C352 455.472 368 455.472 384 436.534C400 417.595 416 417.595 432 436.534C448 455.472 464 455.472 480 436.534C496 417.595 512 417.595 528 436.534C544 455.472 560 455.472 576 436.534C592 417.595 608 417.595 624 436.534C640 455.472 656 455.472 672 436.534C688 417.595 704 417.595 720 436.534C736 455.472 752 455.472 768 436.534C784 417.595 800 417.595 816 436.534C832 455.472 848 455.472 864 436.534C880 417.595 896 417.595 912 436.534C928 455.472 944 455.472 960 436.534C976 417.595 992 417.595 1008 436.534C1024 455.472 1040 455.472 1056 436.534C1072 417.595 1088 417.595 1104 436.534C1120 455.472 1136 455.472 1152 436.534C1168 417.595 1184 417.595 1200 436.534C1216 455.472 1232 455.472 1248 436.534C1264 417.595 1280 417.595 1296 436.534C1312 455.472 1328 455.472 1344 436.534C1360 417.595 1376 417.595 1392 436.534C1408 455.472 1424 455.472 1440 436.534C1456 417.595 1472 417.595 1488 436.534C1504 455.472 1520 455.472 1536 436.534C1552 417.595 1568 417.595 1584 436.534C1600 455.472 1616 455.472 1632 436.534C1648 417.595 1664 417.595 1680 436.534C1696 455.472 1712 455.472 1728 436.534C1744 417.595 1760 417.595 1776 436.534C1792 455.472 1808 455.472 1824 436.534C1840 417.595 1856 417.595 1872 436.534C1888 455.472 1904 455.472 1920 436.534" stroke="url(#paint14_linear_175_7055)" stroke-width="2"/>
<path d="M0 132.24C16 113.302 32 113.302 48 132.24C64 151.178 80 151.178 96 132.24C112 113.302 128 113.302 144 132.24C160 151.178 176 151.178 192 132.24C208 113.302 224 113.302 240 132.24C256 151.178 272 151.178 288 132.24C304 113.302 320 113.302 336 132.24C352 151.178 368 151.178 384 132.24C400 113.302 416 113.302 432 132.24C448 151.178 464 151.178 480 132.24C496 113.302 512 113.302 528 132.24C544 151.178 560 151.178 576 132.24C592 113.302 608 113.302 624 132.24C640 151.178 656 151.178 672 132.24C688 113.302 704 113.302 720 132.24C736 151.178 752 151.178 768 132.24C784 113.302 800 113.302 816 132.24C832 151.178 848 151.178 864 132.24C880 113.302 896 113.302 912 132.24C928 151.178 944 151.178 960 132.24C976 113.302 992 113.302 1008 132.24C1024 151.178 1040 151.178 1056 132.24C1072 113.302 1088 113.302 1104 132.24C1120 151.178 1136 151.178 1152 132.24C1168 113.302 1184 113.302 1200 132.24C1216 151.178 1232 151.178 1248 132.24C1264 113.302 1280 113.302 1296 132.24C1312 151.178 1328 151.178 1344 132.24C1360 113.302 1376 113.302 1392 132.24C1408 151.178 1424 151.178 1440 132.24C1456 113.302 1472 113.302 1488 132.24C1504 151.178 1520 151.178 1536 132.24C1552 113.302 1568 113.302 1584 132.24C1600 151.178 1616 151.178 1632 132.24C1648 113.302 1664 113.302 1680 132.24C1696 151.178 1712 151.178 1728 132.24C1744 113.302 1760 113.302 1776 132.24C1792 151.178 1808 151.178 1824 132.24C1840 113.302 1856 113.302 1872 132.24C1888 151.178 1904 151.178 1920 132.24" stroke="url(#paint15_linear_175_7055)" stroke-width="2"/>
<path d="M0 296.09C16 277.152 32 277.152 48 296.09C64 315.029 80 315.029 96 296.09C112 277.152 128 277.152 144 296.09C160 315.029 176 315.029 192 296.09C208 277.152 224 277.152 240 296.09C256 315.029 272 315.029 288 296.09C304 277.152 320 277.152 336 296.09C352 315.029 368 315.029 384 296.09C400 277.152 416 277.152 432 296.09C448 315.029 464 315.029 480 296.09C496 277.152 512 277.152 528 296.09C544 315.029 560 315.029 576 296.09C592 277.152 608 277.152 624 296.09C640 315.029 656 315.029 672 296.09C688 277.152 704 277.152 720 296.09C736 315.029 752 315.029 768 296.09C784 277.152 800 277.152 816 296.09C832 315.029 848 315.029 864 296.09C880 277.152 896 277.152 912 296.09C928 315.029 944 315.029 960 296.09C976 277.152 992 277.152 1008 296.09C1024 315.029 1040 315.029 1056 296.09C1072 277.152 1088 277.152 1104 296.09C1120 315.029 1136 315.029 1152 296.09C1168 277.152 1184 277.152 1200 296.09C1216 315.029 1232 315.029 1248 296.09C1264 277.152 1280 277.152 1296 296.09C1312 315.029 1328 315.029 1344 296.09C1360 277.152 1376 277.152 1392 296.09C1408 315.029 1424 315.029 1440 296.09C1456 277.152 1472 277.152 1488 296.09C1504 315.029 1520 315.029 1536 296.09C1552 277.152 1568 277.152 1584 296.09C1600 315.029 1616 315.029 1632 296.09C1648 277.152 1664 277.152 1680 296.09C1696 315.029 1712 315.029 1728 296.09C1744 277.152 1760 277.152 1776 296.09C1792 315.029 1808 315.029 1824 296.09C1840 277.152 1856 277.152 1872 296.09C1888 315.029 1904 315.029 1920 296.09" stroke="url(#paint16_linear_175_7055)" stroke-width="2"/>
<path d="M0 459.941C16 441.003 32 441.003 48 459.941C64 478.879 80 478.879 96 459.941C112 441.003 128 441.003 144 459.941C160 478.879 176 478.879 192 459.941C208 441.003 224 441.003 240 459.941C256 478.879 272 478.879 288 459.941C304 441.003 320 441.003 336 459.941C352 478.879 368 478.879 384 459.941C400 441.003 416 441.003 432 459.941C448 478.879 464 478.879 480 459.941C496 441.003 512 441.003 528 459.941C544 478.879 560 478.879 576 459.941C592 441.003 608 441.003 624 459.941C640 478.879 656 478.879 672 459.941C688 441.003 704 441.003 720 459.941C736 478.879 752 478.879 768 459.941C784 441.003 800 441.003 816 459.941C832 478.879 848 478.879 864 459.941C880 441.003 896 441.003 912 459.941C928 478.879 944 478.879 960 459.941C976 441.003 992 441.003 1008 459.941C1024 478.879 1040 478.879 1056 459.941C1072 441.003 1088 441.003 1104 459.941C1120 478.879 1136 478.879 1152 459.941C1168 441.003 1184 441.003 1200 459.941C1216 478.879 1232 478.879 1248 459.941C1264 441.003 1280 441.003 1296 459.941C1312 478.879 1328 478.879 1344 459.941C1360 441.003 1376 441.003 1392 459.941C1408 478.879 1424 478.879 1440 459.941C1456 441.003 1472 441.003 1488 459.941C1504 478.879 1520 478.879 1536 459.941C1552 441.003 1568 441.003 1584 459.941C1600 478.879 1616 478.879 1632 459.941C1648 441.003 1664 441.003 1680 459.941C1696 478.879 1712 478.879 1728 459.941C1744 441.003 1760 441.003 1776 459.941C1792 478.879 1808 478.879 1824 459.941C1840 441.003 1856 441.003 1872 459.941C1888 478.879 1904 478.879 1920 459.941" stroke="url(#paint17_linear_175_7055)" stroke-width="2"/>
<path d="M0 155.647C16 136.709 32 136.709 48 155.647C64 174.585 80 174.585 96 155.647C112 136.709 128 136.709 144 155.647C160 174.585 176 174.585 192 155.647C208 136.709 224 136.709 240 155.647C256 174.585 272 174.585 288 155.647C304 136.709 320 136.709 336 155.647C352 174.585 368 174.585 384 155.647C400 136.709 416 136.709 432 155.647C448 174.585 464 174.585 480 155.647C496 136.709 512 136.709 528 155.647C544 174.585 560 174.585 576 155.647C592 136.709 608 136.709 624 155.647C640 174.585 656 174.585 672 155.647C688 136.709 704 136.709 720 155.647C736 174.585 752 174.585 768 155.647C784 136.709 800 136.709 816 155.647C832 174.585 848 174.585 864 155.647C880 136.709 896 136.709 912 155.647C928 174.585 944 174.585 960 155.647C976 136.709 992 136.709 1008 155.647C1024 174.585 1040 174.585 1056 155.647C1072 136.709 1088 136.709 1104 155.647C1120 174.585 1136 174.585 1152 155.647C1168 136.709 1184 136.709 1200 155.647C1216 174.585 1232 174.585 1248 155.647C1264 136.709 1280 136.709 1296 155.647C1312 174.585 1328 174.585 1344 155.647C1360 136.709 1376 136.709 1392 155.647C1408 174.585 1424 174.585 1440 155.647C1456 136.709 1472 136.709 1488 155.647C1504 174.585 1520 174.585 1536 155.647C1552 136.709 1568 136.709 1584 155.647C1600 174.585 1616 174.585 1632 155.647C1648 136.709 1664 136.709 1680 155.647C1696 174.585 1712 174.585 1728 155.647C1744 136.709 1760 136.709 1776 155.647C1792 174.585 1808 174.585 1824 155.647C1840 136.709 1856 136.709 1872 155.647C1888 174.585 1904 174.585 1920 155.647" stroke="url(#paint18_linear_175_7055)" stroke-width="2"/>
<path d="M0 319.498C16 300.559 32 300.559 48 319.498C64 338.436 80 338.436 96 319.498C112 300.559 128 300.559 144 319.498C160 338.436 176 338.436 192 319.498C208 300.559 224 300.559 240 319.498C256 338.436 272 338.436 288 319.498C304 300.559 320 300.559 336 319.498C352 338.436 368 338.436 384 319.498C400 300.559 416 300.559 432 319.498C448 338.436 464 338.436 480 319.498C496 300.559 512 300.559 528 319.498C544 338.436 560 338.436 576 319.498C592 300.559 608 300.559 624 319.498C640 338.436 656 338.436 672 319.498C688 300.559 704 300.559 720 319.498C736 338.436 752 338.436 768 319.498C784 300.559 800 300.559 816 319.498C832 338.436 848 338.436 864 319.498C880 300.559 896 300.559 912 319.498C928 338.436 944 338.436 960 319.498C976 300.559 992 300.559 1008 319.498C1024 338.436 1040 338.436 1056 319.498C1072 300.559 1088 300.559 1104 319.498C1120 338.436 1136 338.436 1152 319.498C1168 300.559 1184 300.559 1200 319.498C1216 338.436 1232 338.436 1248 319.498C1264 300.559 1280 300.559 1296 319.498C1312 338.436 1328 338.436 1344 319.498C1360 300.559 1376 300.559 1392 319.498C1408 338.436 1424 338.436 1440 319.498C1456 300.559 1472 300.559 1488 319.498C1504 338.436 1520 338.436 1536 319.498C1552 300.559 1568 300.559 1584 319.498C1600 338.436 1616 338.436 1632 319.498C1648 300.559 1664 300.559 1680 319.498C1696 338.436 1712 338.436 1728 319.498C1744 300.559 1760 300.559 1776 319.498C1792 338.436 1808 338.436 1824 319.498C1840 300.559 1856 300.559 1872 319.498C1888 338.436 1904 338.436 1920 319.498" stroke="url(#paint19_linear_175_7055)" stroke-width="2"/>
<path d="M0 483.348C16 464.41 32 464.41 48 483.348C64 502.287 80 502.287 96 483.348C112 464.41 128 464.41 144 483.348C160 502.287 176 502.287 192 483.348C208 464.41 224 464.41 240 483.348C256 502.287 272 502.287 288 483.348C304 464.41 320 464.41 336 483.348C352 502.287 368 502.287 384 483.348C400 464.41 416 464.41 432 483.348C448 502.287 464 502.287 480 483.348C496 464.41 512 464.41 528 483.348C544 502.287 560 502.287 576 483.348C592 464.41 608 464.41 624 483.348C640 502.287 656 502.287 672 483.348C688 464.41 704 464.41 720 483.348C736 502.287 752 502.287 768 483.348C784 464.41 800 464.41 816 483.348C832 502.287 848 502.287 864 483.348C880 464.41 896 464.41 912 483.348C928 502.287 944 502.287 960 483.348C976 464.41 992 464.41 1008 483.348C1024 502.287 1040 502.287 1056 483.348C1072 464.41 1088 464.41 1104 483.348C1120 502.287 1136 502.287 1152 483.348C1168 464.41 1184 464.41 1200 483.348C1216 502.287 1232 502.287 1248 483.348C1264 464.41 1280 464.41 1296 483.348C1312 502.287 1328 502.287 1344 483.348C1360 464.41 1376 464.41 1392 483.348C1408 502.287 1424 502.287 1440 483.348C1456 464.41 1472 464.41 1488 483.348C1504 502.287 1520 502.287 1536 483.348C1552 464.41 1568 464.41 1584 483.348C1600 502.287 1616 502.287 1632 483.348C1648 464.41 1664 464.41 1680 483.348C1696 502.287 1712 502.287 1728 483.348C1744 464.41 1760 464.41 1776 483.348C1792 502.287 1808 502.287 1824 483.348C1840 464.41 1856 464.41 1872 483.348C1888 502.287 1904 502.287 1920 483.348" stroke="url(#paint20_linear_175_7055)" stroke-width="2"/>
<path d="M0 506.204C16 487.265 32 487.265 48 506.204C64 525.142 80 525.142 96 506.204C112 487.265 128 487.265 144 506.204C160 525.142 176 525.142 192 506.204C208 487.265 224 487.265 240 506.204C256 525.142 272 525.142 288 506.204C304 487.265 320 487.265 336 506.204C352 525.142 368 525.142 384 506.204C400 487.265 416 487.265 432 506.204C448 525.142 464 525.142 480 506.204C496 487.265 512 487.265 528 506.204C544 525.142 560 525.142 576 506.204C592 487.265 608 487.265 624 506.204C640 525.142 656 525.142 672 506.204C688 487.265 704 487.265 720 506.204C736 525.142 752 525.142 768 506.204C784 487.265 800 487.265 816 506.204C832 525.142 848 525.142 864 506.204C880 487.265 896 487.265 912 506.204C928 525.142 944 525.142 960 506.204C976 487.265 992 487.265 1008 506.204C1024 525.142 1040 525.142 1056 506.204C1072 487.265 1088 487.265 1104 506.204C1120 525.142 1136 525.142 1152 506.204C1168 487.265 1184 487.265 1200 506.204C1216 525.142 1232 525.142 1248 506.204C1264 487.265 1280 487.265 1296 506.204C1312 525.142 1328 525.142 1344 506.204C1360 487.265 1376 487.265 1392 506.204C1408 525.142 1424 525.142 1440 506.204C1456 487.265 1472 487.265 1488 506.204C1504 525.142 1520 525.142 1536 506.204C1552 487.265 1568 487.265 1584 506.204C1600 525.142 1616 525.142 1632 506.204C1648 487.265 1664 487.265 1680 506.204C1696 525.142 1712 525.142 1728 506.204C1744 487.265 1760 487.265 1776 506.204C1792 525.142 1808 525.142 1824 506.204C1840 487.265 1856 487.265 1872 506.204C1888 525.142 1904 525.142 1920 506.204" stroke="url(#paint21_linear_175_7055)" stroke-width="2"/>
<path d="M0 670.054C16 651.116 32 651.116 48 670.054C64 688.993 80 688.993 96 670.054C112 651.116 128 651.116 144 670.054C160 688.993 176 688.993 192 670.054C208 651.116 224 651.116 240 670.054C256 688.993 272 688.993 288 670.054C304 651.116 320 651.116 336 670.054C352 688.993 368 688.993 384 670.054C400 651.116 416 651.116 432 670.054C448 688.993 464 688.993 480 670.054C496 651.116 512 651.116 528 670.054C544 688.993 560 688.993 576 670.054C592 651.116 608 651.116 624 670.054C640 688.993 656 688.993 672 670.054C688 651.116 704 651.116 720 670.054C736 688.993 752 688.993 768 670.054C784 651.116 800 651.116 816 670.054C832 688.993 848 688.993 864 670.054C880 651.116 896 651.116 912 670.054C928 688.993 944 688.993 960 670.054C976 651.116 992 651.116 1008 670.054C1024 688.993 1040 688.993 1056 670.054C1072 651.116 1088 651.116 1104 670.054C1120 688.993 1136 688.993 1152 670.054C1168 651.116 1184 651.116 1200 670.054C1216 688.993 1232 688.993 1248 670.054C1264 651.116 1280 651.116 1296 670.054C1312 688.993 1328 688.993 1344 670.054C1360 651.116 1376 651.116 1392 670.054C1408 688.993 1424 688.993 1440 670.054C1456 651.116 1472 651.116 1488 670.054C1504 688.993 1520 688.993 1536 670.054C1552 651.116 1568 651.116 1584 670.054C1600 688.993 1616 688.993 1632 670.054C1648 651.116 1664 651.116 1680 670.054C1696 688.993 1712 688.993 1728 670.054C1744 651.116 1760 651.116 1776 670.054C1792 688.993 1808 688.993 1824 670.054C1840 651.116 1856 651.116 1872 670.054C1888 688.993 1904 688.993 1920 670.054" stroke="url(#paint22_linear_175_7055)" stroke-width="2"/>
<path d="M0 833.905C16 814.967 32 814.967 48 833.905C64 852.843 80 852.843 96 833.905C112 814.967 128 814.967 144 833.905C160 852.843 176 852.843 192 833.905C208 814.967 224 814.967 240 833.905C256 852.843 272 852.843 288 833.905C304 814.967 320 814.967 336 833.905C352 852.843 368 852.843 384 833.905C400 814.967 416 814.967 432 833.905C448 852.843 464 852.843 480 833.905C496 814.967 512 814.967 528 833.905C544 852.843 560 852.843 576 833.905C592 814.967 608 814.967 624 833.905C640 852.843 656 852.843 672 833.905C688 814.967 704 814.967 720 833.905C736 852.843 752 852.843 768 833.905C784 814.967 800 814.967 816 833.905C832 852.843 848 852.843 864 833.905C880 814.967 896 814.967 912 833.905C928 852.843 944 852.843 960 833.905C976 814.967 992 814.967 1008 833.905C1024 852.843 1040 852.843 1056 833.905C1072 814.967 1088 814.967 1104 833.905C1120 852.843 1136 852.843 1152 833.905C1168 814.967 1184 814.967 1200 833.905C1216 852.843 1232 852.843 1248 833.905C1264 814.967 1280 814.967 1296 833.905C1312 852.843 1328 852.843 1344 833.905C1360 814.967 1376 814.967 1392 833.905C1408 852.843 1424 852.843 1440 833.905C1456 814.967 1472 814.967 1488 833.905C1504 852.843 1520 852.843 1536 833.905C1552 814.967 1568 814.967 1584 833.905C1600 852.843 1616 852.843 1632 833.905C1648 814.967 1664 814.967 1680 833.905C1696 852.843 1712 852.843 1728 833.905C1744 814.967 1760 814.967 1776 833.905C1792 852.843 1808 852.843 1824 833.905C1840 814.967 1856 814.967 1872 833.905C1888 852.843 1904 852.843 1920 833.905" stroke="url(#paint23_linear_175_7055)" stroke-width="2"/>
<path d="M0 529.611C16 510.673 32 510.673 48 529.611C64 548.549 80 548.549 96 529.611C112 510.673 128 510.673 144 529.611C160 548.549 176 548.549 192 529.611C208 510.673 224 510.673 240 529.611C256 548.549 272 548.549 288 529.611C304 510.673 320 510.673 336 529.611C352 548.549 368 548.549 384 529.611C400 510.673 416 510.673 432 529.611C448 548.549 464 548.549 480 529.611C496 510.673 512 510.673 528 529.611C544 548.549 560 548.549 576 529.611C592 510.673 608 510.673 624 529.611C640 548.549 656 548.549 672 529.611C688 510.673 704 510.673 720 529.611C736 548.549 752 548.549 768 529.611C784 510.673 800 510.673 816 529.611C832 548.549 848 548.549 864 529.611C880 510.673 896 510.673 912 529.611C928 548.549 944 548.549 960 529.611C976 510.673 992 510.673 1008 529.611C1024 548.549 1040 548.549 1056 529.611C1072 510.673 1088 510.673 1104 529.611C1120 548.549 1136 548.549 1152 529.611C1168 510.673 1184 510.673 1200 529.611C1216 548.549 1232 548.549 1248 529.611C1264 510.673 1280 510.673 1296 529.611C1312 548.549 1328 548.549 1344 529.611C1360 510.673 1376 510.673 1392 529.611C1408 548.549 1424 548.549 1440 529.611C1456 510.673 1472 510.673 1488 529.611C1504 548.549 1520 548.549 1536 529.611C1552 510.673 1568 510.673 1584 529.611C1600 548.549 1616 548.549 1632 529.611C1648 510.673 1664 510.673 1680 529.611C1696 548.549 1712 548.549 1728 529.611C1744 510.673 1760 510.673 1776 529.611C1792 548.549 1808 548.549 1824 529.611C1840 510.673 1856 510.673 1872 529.611C1888 548.549 1904 548.549 1920 529.611" stroke="url(#paint24_linear_175_7055)" stroke-width="2"/>
<path d="M0 693.462C16 674.523 32 674.523 48 693.462C64 712.4 80 712.4 96 693.462C112 674.523 128 674.523 144 693.462C160 712.4 176 712.4 192 693.462C208 674.523 224 674.523 240 693.462C256 712.4 272 712.4 288 693.462C304 674.523 320 674.523 336 693.462C352 712.4 368 712.4 384 693.462C400 674.523 416 674.523 432 693.462C448 712.4 464 712.4 480 693.462C496 674.523 512 674.523 528 693.462C544 712.4 560 712.4 576 693.462C592 674.523 608 674.523 624 693.462C640 712.4 656 712.4 672 693.462C688 674.523 704 674.523 720 693.462C736 712.4 752 712.4 768 693.462C784 674.523 800 674.523 816 693.462C832 712.4 848 712.4 864 693.462C880 674.523 896 674.523 912 693.462C928 712.4 944 712.4 960 693.462C976 674.523 992 674.523 1008 693.462C1024 712.4 1040 712.4 1056 693.462C1072 674.523 1088 674.523 1104 693.462C1120 712.4 1136 712.4 1152 693.462C1168 674.523 1184 674.523 1200 693.462C1216 712.4 1232 712.4 1248 693.462C1264 674.523 1280 674.523 1296 693.462C1312 712.4 1328 712.4 1344 693.462C1360 674.523 1376 674.523 1392 693.462C1408 712.4 1424 712.4 1440 693.462C1456 674.523 1472 674.523 1488 693.462C1504 712.4 1520 712.4 1536 693.462C1552 674.523 1568 674.523 1584 693.462C1600 712.4 1616 712.4 1632 693.462C1648 674.523 1664 674.523 1680 693.462C1696 712.4 1712 712.4 1728 693.462C1744 674.523 1760 674.523 1776 693.462C1792 712.4 1808 712.4 1824 693.462C1840 674.523 1856 674.523 1872 693.462C1888 712.4 1904 712.4 1920 693.462" stroke="url(#paint25_linear_175_7055)" stroke-width="2"/>
<path d="M0 553.018C16 534.08 32 534.08 48 553.018C64 571.957 80 571.957 96 553.018C112 534.08 128 534.08 144 553.018C160 571.957 176 571.957 192 553.018C208 534.08 224 534.08 240 553.018C256 571.957 272 571.957 288 553.018C304 534.08 320 534.08 336 553.018C352 571.957 368 571.957 384 553.018C400 534.08 416 534.08 432 553.018C448 571.957 464 571.957 480 553.018C496 534.08 512 534.08 528 553.018C544 571.957 560 571.957 576 553.018C592 534.08 608 534.08 624 553.018C640 571.957 656 571.957 672 553.018C688 534.08 704 534.08 720 553.018C736 571.957 752 571.957 768 553.018C784 534.08 800 534.08 816 553.018C832 571.957 848 571.957 864 553.018C880 534.08 896 534.08 912 553.018C928 571.957 944 571.957 960 553.018C976 534.08 992 534.08 1008 553.018C1024 571.957 1040 571.957 1056 553.018C1072 534.08 1088 534.08 1104 553.018C1120 571.957 1136 571.957 1152 553.018C1168 534.08 1184 534.08 1200 553.018C1216 571.957 1232 571.957 1248 553.018C1264 534.08 1280 534.08 1296 553.018C1312 571.957 1328 571.957 1344 553.018C1360 534.08 1376 534.08 1392 553.018C1408 571.957 1424 571.957 1440 553.018C1456 534.08 1472 534.08 1488 553.018C1504 571.957 1520 571.957 1536 553.018C1552 534.08 1568 534.08 1584 553.018C1600 571.957 1616 571.957 1632 553.018C1648 534.08 1664 534.08 1680 553.018C1696 571.957 1712 571.957 1728 553.018C1744 534.08 1760 534.08 1776 553.018C1792 571.957 1808 571.957 1824 553.018C1840 534.08 1856 534.08 1872 553.018C1888 571.957 1904 571.957 1920 553.018" stroke="url(#paint26_linear_175_7055)" stroke-width="2"/>
<path d="M0 716.869C16 697.93 32 697.93 48 716.869C64 735.807 80 735.807 96 716.869C112 697.93 128 697.93 144 716.869C160 735.807 176 735.807 192 716.869C208 697.93 224 697.93 240 716.869C256 735.807 272 735.807 288 716.869C304 697.93 320 697.93 336 716.869C352 735.807 368 735.807 384 716.869C400 697.93 416 697.93 432 716.869C448 735.807 464 735.807 480 716.869C496 697.93 512 697.93 528 716.869C544 735.807 560 735.807 576 716.869C592 697.93 608 697.93 624 716.869C640 735.807 656 735.807 672 716.869C688 697.93 704 697.93 720 716.869C736 735.807 752 735.807 768 716.869C784 697.93 800 697.93 816 716.869C832 735.807 848 735.807 864 716.869C880 697.93 896 697.93 912 716.869C928 735.807 944 735.807 960 716.869C976 697.93 992 697.93 1008 716.869C1024 735.807 1040 735.807 1056 716.869C1072 697.93 1088 697.93 1104 716.869C1120 735.807 1136 735.807 1152 716.869C1168 697.93 1184 697.93 1200 716.869C1216 735.807 1232 735.807 1248 716.869C1264 697.93 1280 697.93 1296 716.869C1312 735.807 1328 735.807 1344 716.869C1360 697.93 1376 697.93 1392 716.869C1408 735.807 1424 735.807 1440 716.869C1456 697.93 1472 697.93 1488 716.869C1504 735.807 1520 735.807 1536 716.869C1552 697.93 1568 697.93 1584 716.869C1600 735.807 1616 735.807 1632 716.869C1648 697.93 1664 697.93 1680 716.869C1696 735.807 1712 735.807 1728 716.869C1744 697.93 1760 697.93 1776 716.869C1792 735.807 1808 735.807 1824 716.869C1840 697.93 1856 697.93 1872 716.869C1888 735.807 1904 735.807 1920 716.869" stroke="url(#paint27_linear_175_7055)" stroke-width="2"/>
<path d="M0 576.425C16 557.487 32 557.487 48 576.425C64 595.364 80 595.364 96 576.425C112 557.487 128 557.487 144 576.425C160 595.364 176 595.364 192 576.425C208 557.487 224 557.487 240 576.425C256 595.364 272 595.364 288 576.425C304 557.487 320 557.487 336 576.425C352 595.364 368 595.364 384 576.425C400 557.487 416 557.487 432 576.425C448 595.364 464 595.364 480 576.425C496 557.487 512 557.487 528 576.425C544 595.364 560 595.364 576 576.425C592 557.487 608 557.487 624 576.425C640 595.364 656 595.364 672 576.425C688 557.487 704 557.487 720 576.425C736 595.364 752 595.364 768 576.425C784 557.487 800 557.487 816 576.425C832 595.364 848 595.364 864 576.425C880 557.487 896 557.487 912 576.425C928 595.364 944 595.364 960 576.425C976 557.487 992 557.487 1008 576.425C1024 595.364 1040 595.364 1056 576.425C1072 557.487 1088 557.487 1104 576.425C1120 595.364 1136 595.364 1152 576.425C1168 557.487 1184 557.487 1200 576.425C1216 595.364 1232 595.364 1248 576.425C1264 557.487 1280 557.487 1296 576.425C1312 595.364 1328 595.364 1344 576.425C1360 557.487 1376 557.487 1392 576.425C1408 595.364 1424 595.364 1440 576.425C1456 557.487 1472 557.487 1488 576.425C1504 595.364 1520 595.364 1536 576.425C1552 557.487 1568 557.487 1584 576.425C1600 595.364 1616 595.364 1632 576.425C1648 557.487 1664 557.487 1680 576.425C1696 595.364 1712 595.364 1728 576.425C1744 557.487 1760 557.487 1776 576.425C1792 595.364 1808 595.364 1824 576.425C1840 557.487 1856 557.487 1872 576.425C1888 595.364 1904 595.364 1920 576.425" stroke="url(#paint28_linear_175_7055)" stroke-width="2"/>
<path d="M0 740.276C16 721.338 32 721.338 48 740.276C64 759.214 80 759.214 96 740.276C112 721.338 128 721.338 144 740.276C160 759.214 176 759.214 192 740.276C208 721.338 224 721.338 240 740.276C256 759.214 272 759.214 288 740.276C304 721.338 320 721.338 336 740.276C352 759.214 368 759.214 384 740.276C400 721.338 416 721.338 432 740.276C448 759.214 464 759.214 480 740.276C496 721.338 512 721.338 528 740.276C544 759.214 560 759.214 576 740.276C592 721.338 608 721.338 624 740.276C640 759.214 656 759.214 672 740.276C688 721.338 704 721.338 720 740.276C736 759.214 752 759.214 768 740.276C784 721.338 800 721.338 816 740.276C832 759.214 848 759.214 864 740.276C880 721.338 896 721.338 912 740.276C928 759.214 944 759.214 960 740.276C976 721.338 992 721.338 1008 740.276C1024 759.214 1040 759.214 1056 740.276C1072 721.338 1088 721.338 1104 740.276C1120 759.214 1136 759.214 1152 740.276C1168 721.338 1184 721.338 1200 740.276C1216 759.214 1232 759.214 1248 740.276C1264 721.338 1280 721.338 1296 740.276C1312 759.214 1328 759.214 1344 740.276C1360 721.338 1376 721.338 1392 740.276C1408 759.214 1424 759.214 1440 740.276C1456 721.338 1472 721.338 1488 740.276C1504 759.214 1520 759.214 1536 740.276C1552 721.338 1568 721.338 1584 740.276C1600 759.214 1616 759.214 1632 740.276C1648 721.338 1664 721.338 1680 740.276C1696 759.214 1712 759.214 1728 740.276C1744 721.338 1760 721.338 1776 740.276C1792 759.214 1808 759.214 1824 740.276C1840 721.338 1856 721.338 1872 740.276C1888 759.214 1904 759.214 1920 740.276" stroke="url(#paint29_linear_175_7055)" stroke-width="2"/>
<path d="M0 599.833C16 580.894 32 580.894 48 599.833C64 618.771 80 618.771 96 599.833C112 580.894 128 580.894 144 599.833C160 618.771 176 618.771 192 599.833C208 580.894 224 580.894 240 599.833C256 618.771 272 618.771 288 599.833C304 580.894 320 580.894 336 599.833C352 618.771 368 618.771 384 599.833C400 580.894 416 580.894 432 599.833C448 618.771 464 618.771 480 599.833C496 580.894 512 580.894 528 599.833C544 618.771 560 618.771 576 599.833C592 580.894 608 580.894 624 599.833C640 618.771 656 618.771 672 599.833C688 580.894 704 580.894 720 599.833C736 618.771 752 618.771 768 599.833C784 580.894 800 580.894 816 599.833C832 618.771 848 618.771 864 599.833C880 580.894 896 580.894 912 599.833C928 618.771 944 618.771 960 599.833C976 580.894 992 580.894 1008 599.833C1024 618.771 1040 618.771 1056 599.833C1072 580.894 1088 580.894 1104 599.833C1120 618.771 1136 618.771 1152 599.833C1168 580.894 1184 580.894 1200 599.833C1216 618.771 1232 618.771 1248 599.833C1264 580.894 1280 580.894 1296 599.833C1312 618.771 1328 618.771 1344 599.833C1360 580.894 1376 580.894 1392 599.833C1408 618.771 1424 618.771 1440 599.833C1456 580.894 1472 580.894 1488 599.833C1504 618.771 1520 618.771 1536 599.833C1552 580.894 1568 580.894 1584 599.833C1600 618.771 1616 618.771 1632 599.833C1648 580.894 1664 580.894 1680 599.833C1696 618.771 1712 618.771 1728 599.833C1744 580.894 1760 580.894 1776 599.833C1792 618.771 1808 618.771 1824 599.833C1840 580.894 1856 580.894 1872 599.833C1888 618.771 1904 618.771 1920 599.833" stroke="url(#paint30_linear_175_7055)" stroke-width="2"/>
<path d="M0 763.683C16 744.745 32 744.745 48 763.683C64 782.622 80 782.622 96 763.683C112 744.745 128 744.745 144 763.683C160 782.622 176 782.622 192 763.683C208 744.745 224 744.745 240 763.683C256 782.622 272 782.622 288 763.683C304 744.745 320 744.745 336 763.683C352 782.622 368 782.622 384 763.683C400 744.745 416 744.745 432 763.683C448 782.622 464 782.622 480 763.683C496 744.745 512 744.745 528 763.683C544 782.622 560 782.622 576 763.683C592 744.745 608 744.745 624 763.683C640 782.622 656 782.622 672 763.683C688 744.745 704 744.745 720 763.683C736 782.622 752 782.622 768 763.683C784 744.745 800 744.745 816 763.683C832 782.622 848 782.622 864 763.683C880 744.745 896 744.745 912 763.683C928 782.622 944 782.622 960 763.683C976 744.745 992 744.745 1008 763.683C1024 782.622 1040 782.622 1056 763.683C1072 744.745 1088 744.745 1104 763.683C1120 782.622 1136 782.622 1152 763.683C1168 744.745 1184 744.745 1200 763.683C1216 782.622 1232 782.622 1248 763.683C1264 744.745 1280 744.745 1296 763.683C1312 782.622 1328 782.622 1344 763.683C1360 744.745 1376 744.745 1392 763.683C1408 782.622 1424 782.622 1440 763.683C1456 744.745 1472 744.745 1488 763.683C1504 782.622 1520 782.622 1536 763.683C1552 744.745 1568 744.745 1584 763.683C1600 782.622 1616 782.622 1632 763.683C1648 744.745 1664 744.745 1680 763.683C1696 782.622 1712 782.622 1728 763.683C1744 744.745 1760 744.745 1776 763.683C1792 782.622 1808 782.622 1824 763.683C1840 744.745 1856 744.745 1872 763.683C1888 782.622 1904 782.622 1920 763.683" stroke="url(#paint31_linear_175_7055)" stroke-width="2"/>
<path d="M0 623.24C16 604.302 32 604.302 48 623.24C64 642.178 80 642.178 96 623.24C112 604.302 128 604.302 144 623.24C160 642.178 176 642.178 192 623.24C208 604.302 224 604.302 240 623.24C256 642.178 272 642.178 288 623.24C304 604.302 320 604.302 336 623.24C352 642.178 368 642.178 384 623.24C400 604.302 416 604.302 432 623.24C448 642.178 464 642.178 480 623.24C496 604.302 512 604.302 528 623.24C544 642.178 560 642.178 576 623.24C592 604.302 608 604.302 624 623.24C640 642.178 656 642.178 672 623.24C688 604.302 704 604.302 720 623.24C736 642.178 752 642.178 768 623.24C784 604.302 800 604.302 816 623.24C832 642.178 848 642.178 864 623.24C880 604.302 896 604.302 912 623.24C928 642.178 944 642.178 960 623.24C976 604.302 992 604.302 1008 623.24C1024 642.178 1040 642.178 1056 623.24C1072 604.302 1088 604.302 1104 623.24C1120 642.178 1136 642.178 1152 623.24C1168 604.302 1184 604.302 1200 623.24C1216 642.178 1232 642.178 1248 623.24C1264 604.302 1280 604.302 1296 623.24C1312 642.178 1328 642.178 1344 623.24C1360 604.302 1376 604.302 1392 623.24C1408 642.178 1424 642.178 1440 623.24C1456 604.302 1472 604.302 1488 623.24C1504 642.178 1520 642.178 1536 623.24C1552 604.302 1568 604.302 1584 623.24C1600 642.178 1616 642.178 1632 623.24C1648 604.302 1664 604.302 1680 623.24C1696 642.178 1712 642.178 1728 623.24C1744 604.302 1760 604.302 1776 623.24C1792 642.178 1808 642.178 1824 623.24C1840 604.302 1856 604.302 1872 623.24C1888 642.178 1904 642.178 1920 623.24" stroke="url(#paint32_linear_175_7055)" stroke-width="2"/>
<path d="M0 787.09C16 768.152 32 768.152 48 787.09C64 806.029 80 806.029 96 787.09C112 768.152 128 768.152 144 787.09C160 806.029 176 806.029 192 787.09C208 768.152 224 768.152 240 787.09C256 806.029 272 806.029 288 787.09C304 768.152 320 768.152 336 787.09C352 806.029 368 806.029 384 787.09C400 768.152 416 768.152 432 787.09C448 806.029 464 806.029 480 787.09C496 768.152 512 768.152 528 787.09C544 806.029 560 806.029 576 787.09C592 768.152 608 768.152 624 787.09C640 806.029 656 806.029 672 787.09C688 768.152 704 768.152 720 787.09C736 806.029 752 806.029 768 787.09C784 768.152 800 768.152 816 787.09C832 806.029 848 806.029 864 787.09C880 768.152 896 768.152 912 787.09C928 806.029 944 806.029 960 787.09C976 768.152 992 768.152 1008 787.09C1024 806.029 1040 806.029 1056 787.09C1072 768.152 1088 768.152 1104 787.09C1120 806.029 1136 806.029 1152 787.09C1168 768.152 1184 768.152 1200 787.09C1216 806.029 1232 806.029 1248 787.09C1264 768.152 1280 768.152 1296 787.09C1312 806.029 1328 806.029 1344 787.09C1360 768.152 1376 768.152 1392 787.09C1408 806.029 1424 806.029 1440 787.09C1456 768.152 1472 768.152 1488 787.09C1504 806.029 1520 806.029 1536 787.09C1552 768.152 1568 768.152 1584 787.09C1600 806.029 1616 806.029 1632 787.09C1648 768.152 1664 768.152 1680 787.09C1696 806.029 1712 806.029 1728 787.09C1744 768.152 1760 768.152 1776 787.09C1792 806.029 1808 806.029 1824 787.09C1840 768.152 1856 768.152 1872 787.09C1888 806.029 1904 806.029 1920 787.09" stroke="url(#paint33_linear_175_7055)" stroke-width="2"/>
<path d="M0 646.647C16 627.709 32 627.709 48 646.647C64 665.585 80 665.585 96 646.647C112 627.709 128 627.709 144 646.647C160 665.585 176 665.585 192 646.647C208 627.709 224 627.709 240 646.647C256 665.585 272 665.585 288 646.647C304 627.709 320 627.709 336 646.647C352 665.585 368 665.585 384 646.647C400 627.709 416 627.709 432 646.647C448 665.585 464 665.585 480 646.647C496 627.709 512 627.709 528 646.647C544 665.585 560 665.585 576 646.647C592 627.709 608 627.709 624 646.647C640 665.585 656 665.585 672 646.647C688 627.709 704 627.709 720 646.647C736 665.585 752 665.585 768 646.647C784 627.709 800 627.709 816 646.647C832 665.585 848 665.585 864 646.647C880 627.709 896 627.709 912 646.647C928 665.585 944 665.585 960 646.647C976 627.709 992 627.709 1008 646.647C1024 665.585 1040 665.585 1056 646.647C1072 627.709 1088 627.709 1104 646.647C1120 665.585 1136 665.585 1152 646.647C1168 627.709 1184 627.709 1200 646.647C1216 665.585 1232 665.585 1248 646.647C1264 627.709 1280 627.709 1296 646.647C1312 665.585 1328 665.585 1344 646.647C1360 627.709 1376 627.709 1392 646.647C1408 665.585 1424 665.585 1440 646.647C1456 627.709 1472 627.709 1488 646.647C1504 665.585 1520 665.585 1536 646.647C1552 627.709 1568 627.709 1584 646.647C1600 665.585 1616 665.585 1632 646.647C1648 627.709 1664 627.709 1680 646.647C1696 665.585 1712 665.585 1728 646.647C1744 627.709 1760 627.709 1776 646.647C1792 665.585 1808 665.585 1824 646.647C1840 627.709 1856 627.709 1872 646.647C1888 665.585 1904 665.585 1920 646.647" stroke="url(#paint34_linear_175_7055)" stroke-width="2"/>
<path d="M0 810.498C16 791.559 32 791.559 48 810.498C64 829.436 80 829.436 96 810.498C112 791.559 128 791.559 144 810.498C160 829.436 176 829.436 192 810.498C208 791.559 224 791.559 240 810.498C256 829.436 272 829.436 288 810.498C304 791.559 320 791.559 336 810.498C352 829.436 368 829.436 384 810.498C400 791.559 416 791.559 432 810.498C448 829.436 464 829.436 480 810.498C496 791.559 512 791.559 528 810.498C544 829.436 560 829.436 576 810.498C592 791.559 608 791.559 624 810.498C640 829.436 656 829.436 672 810.498C688 791.559 704 791.559 720 810.498C736 829.436 752 829.436 768 810.498C784 791.559 800 791.559 816 810.498C832 829.436 848 829.436 864 810.498C880 791.559 896 791.559 912 810.498C928 829.436 944 829.436 960 810.498C976 791.559 992 791.559 1008 810.498C1024 829.436 1040 829.436 1056 810.498C1072 791.559 1088 791.559 1104 810.498C1120 829.436 1136 829.436 1152 810.498C1168 791.559 1184 791.559 1200 810.498C1216 829.436 1232 829.436 1248 810.498C1264 791.559 1280 791.559 1296 810.498C1312 829.436 1328 829.436 1344 810.498C1360 791.559 1376 791.559 1392 810.498C1408 829.436 1424 829.436 1440 810.498C1456 791.559 1472 791.559 1488 810.498C1504 829.436 1520 829.436 1536 810.498C1552 791.559 1568 791.559 1584 810.498C1600 829.436 1616 829.436 1632 810.498C1648 791.559 1664 791.559 1680 810.498C1696 829.436 1712 829.436 1728 810.498C1744 791.559 1760 791.559 1776 810.498C1792 829.436 1808 829.436 1824 810.498C1840 791.559 1856 791.559 1872 810.498C1888 829.436 1904 829.436 1920 810.498" stroke="url(#paint35_linear_175_7055)" stroke-width="2"/>
</g>
<defs>
<linearGradient id="paint0_linear_175_7055" x1="960" y1="1" x2="960" y2="29.4075" gradientUnits="userSpaceOnUse">
<stop stop-color="#003BD2"/>
<stop offset="1" stop-color="#1181E8"/>
</linearGradient>
<linearGradient id="paint1_linear_175_7055" x1="960" y1="164.851" x2="960" y2="193.258" gradientUnits="userSpaceOnUse">
<stop stop-color="#003BD2"/>
<stop offset="1" stop-color="#1181E8"/>
</linearGradient>
<linearGradient id="paint2_linear_175_7055" x1="960" y1="328.701" x2="960" y2="357.109" gradientUnits="userSpaceOnUse">
<stop stop-color="#003BD2"/>
<stop offset="1" stop-color="#1181E8"/>
</linearGradient>
<linearGradient id="paint3_linear_175_7055" x1="960" y1="24.4072" x2="960" y2="52.8147" gradientUnits="userSpaceOnUse">
<stop stop-color="#003BD2"/>
<stop offset="1" stop-color="#1181E8"/>
</linearGradient>
<linearGradient id="paint4_linear_175_7055" x1="960" y1="188.258" x2="960" y2="216.665" gradientUnits="userSpaceOnUse">
<stop stop-color="#003BD2"/>
<stop offset="1" stop-color="#1181E8"/>
</linearGradient>
<linearGradient id="paint5_linear_175_7055" x1="960" y1="352.108" x2="960" y2="380.516" gradientUnits="userSpaceOnUse">
<stop stop-color="#003BD2"/>
<stop offset="1" stop-color="#1181E8"/>
</linearGradient>
<linearGradient id="paint6_linear_175_7055" x1="960" y1="47.8145" x2="960" y2="76.222" gradientUnits="userSpaceOnUse">
<stop stop-color="#003BD2"/>
<stop offset="1" stop-color="#1181E8"/>
</linearGradient>
<linearGradient id="paint7_linear_175_7055" x1="960" y1="211.665" x2="960" y2="240.073" gradientUnits="userSpaceOnUse">
<stop stop-color="#003BD2"/>
<stop offset="1" stop-color="#1181E8"/>
</linearGradient>
<linearGradient id="paint8_linear_175_7055" x1="960" y1="375.516" x2="960" y2="403.923" gradientUnits="userSpaceOnUse">
<stop stop-color="#003BD2"/>
<stop offset="1" stop-color="#1181E8"/>
</linearGradient>
<linearGradient id="paint9_linear_175_7055" x1="960" y1="71.2217" x2="960" y2="99.6292" gradientUnits="userSpaceOnUse">
<stop stop-color="#003BD2"/>
<stop offset="1" stop-color="#1181E8"/>
</linearGradient>
<linearGradient id="paint10_linear_175_7055" x1="960" y1="235.072" x2="960" y2="263.48" gradientUnits="userSpaceOnUse">
<stop stop-color="#003BD2"/>
<stop offset="1" stop-color="#1181E8"/>
</linearGradient>
<linearGradient id="paint11_linear_175_7055" x1="960" y1="398.923" x2="960" y2="427.33" gradientUnits="userSpaceOnUse">
<stop stop-color="#003BD2"/>
<stop offset="1" stop-color="#1181E8"/>
</linearGradient>
<linearGradient id="paint12_linear_175_7055" x1="960" y1="94.6289" x2="960" y2="123.036" gradientUnits="userSpaceOnUse">
<stop stop-color="#003BD2"/>
<stop offset="1" stop-color="#1181E8"/>
</linearGradient>
<linearGradient id="paint13_linear_175_7055" x1="960" y1="258.479" x2="960" y2="286.887" gradientUnits="userSpaceOnUse">
<stop stop-color="#003BD2"/>
<stop offset="1" stop-color="#1181E8"/>
</linearGradient>
<linearGradient id="paint14_linear_175_7055" x1="960" y1="422.33" x2="960" y2="450.738" gradientUnits="userSpaceOnUse">
<stop stop-color="#003BD2"/>
<stop offset="1" stop-color="#1181E8"/>
</linearGradient>
<linearGradient id="paint15_linear_175_7055" x1="960" y1="118.036" x2="960" y2="146.444" gradientUnits="userSpaceOnUse">
<stop stop-color="#003BD2"/>
<stop offset="1" stop-color="#1181E8"/>
</linearGradient>
<linearGradient id="paint16_linear_175_7055" x1="960" y1="281.887" x2="960" y2="310.294" gradientUnits="userSpaceOnUse">
<stop stop-color="#003BD2"/>
<stop offset="1" stop-color="#1181E8"/>
</linearGradient>
<linearGradient id="paint17_linear_175_7055" x1="960" y1="445.737" x2="960" y2="474.145" gradientUnits="userSpaceOnUse">
<stop stop-color="#003BD2"/>
<stop offset="1" stop-color="#1181E8"/>
</linearGradient>
<linearGradient id="paint18_linear_175_7055" x1="960" y1="141.443" x2="960" y2="169.851" gradientUnits="userSpaceOnUse">
<stop stop-color="#003BD2"/>
<stop offset="1" stop-color="#1181E8"/>
</linearGradient>
<linearGradient id="paint19_linear_175_7055" x1="960" y1="305.294" x2="960" y2="333.701" gradientUnits="userSpaceOnUse">
<stop stop-color="#003BD2"/>
<stop offset="1" stop-color="#1181E8"/>
</linearGradient>
<linearGradient id="paint20_linear_175_7055" x1="960" y1="469.145" x2="960" y2="497.552" gradientUnits="userSpaceOnUse">
<stop stop-color="#003BD2"/>
<stop offset="1" stop-color="#1181E8"/>
</linearGradient>
<linearGradient id="paint21_linear_175_7055" x1="960" y1="492" x2="960" y2="520.408" gradientUnits="userSpaceOnUse">
<stop stop-color="#003BD2"/>
<stop offset="1" stop-color="#1181E8"/>
</linearGradient>
<linearGradient id="paint22_linear_175_7055" x1="960" y1="655.851" x2="960" y2="684.258" gradientUnits="userSpaceOnUse">
<stop stop-color="#003BD2"/>
<stop offset="1" stop-color="#1181E8"/>
</linearGradient>
<linearGradient id="paint23_linear_175_7055" x1="960" y1="819.701" x2="960" y2="848.109" gradientUnits="userSpaceOnUse">
<stop stop-color="#003BD2"/>
<stop offset="1" stop-color="#1181E8"/>
</linearGradient>
<linearGradient id="paint24_linear_175_7055" x1="960" y1="515.407" x2="960" y2="543.815" gradientUnits="userSpaceOnUse">
<stop stop-color="#003BD2"/>
<stop offset="1" stop-color="#1181E8"/>
</linearGradient>
<linearGradient id="paint25_linear_175_7055" x1="960" y1="679.258" x2="960" y2="707.665" gradientUnits="userSpaceOnUse">
<stop stop-color="#003BD2"/>
<stop offset="1" stop-color="#1181E8"/>
</linearGradient>
<linearGradient id="paint26_linear_175_7055" x1="960" y1="538.814" x2="960" y2="567.222" gradientUnits="userSpaceOnUse">
<stop stop-color="#003BD2"/>
<stop offset="1" stop-color="#1181E8"/>
</linearGradient>
<linearGradient id="paint27_linear_175_7055" x1="960" y1="702.665" x2="960" y2="731.073" gradientUnits="userSpaceOnUse">
<stop stop-color="#003BD2"/>
<stop offset="1" stop-color="#1181E8"/>
</linearGradient>
<linearGradient id="paint28_linear_175_7055" x1="960" y1="562.222" x2="960" y2="590.629" gradientUnits="userSpaceOnUse">
<stop stop-color="#003BD2"/>
<stop offset="1" stop-color="#1181E8"/>
</linearGradient>
<linearGradient id="paint29_linear_175_7055" x1="960" y1="726.072" x2="960" y2="754.48" gradientUnits="userSpaceOnUse">
<stop stop-color="#003BD2"/>
<stop offset="1" stop-color="#1181E8"/>
</linearGradient>
<linearGradient id="paint30_linear_175_7055" x1="960" y1="585.629" x2="960" y2="614.036" gradientUnits="userSpaceOnUse">
<stop stop-color="#003BD2"/>
<stop offset="1" stop-color="#1181E8"/>
</linearGradient>
<linearGradient id="paint31_linear_175_7055" x1="960" y1="749.479" x2="960" y2="777.887" gradientUnits="userSpaceOnUse">
<stop stop-color="#003BD2"/>
<stop offset="1" stop-color="#1181E8"/>
</linearGradient>
<linearGradient id="paint32_linear_175_7055" x1="960" y1="609.036" x2="960" y2="637.444" gradientUnits="userSpaceOnUse">
<stop stop-color="#003BD2"/>
<stop offset="1" stop-color="#1181E8"/>
</linearGradient>
<linearGradient id="paint33_linear_175_7055" x1="960" y1="772.887" x2="960" y2="801.294" gradientUnits="userSpaceOnUse">
<stop stop-color="#003BD2"/>
<stop offset="1" stop-color="#1181E8"/>
</linearGradient>
<linearGradient id="paint34_linear_175_7055" x1="960" y1="632.443" x2="960" y2="660.851" gradientUnits="userSpaceOnUse">
<stop stop-color="#003BD2"/>
<stop offset="1" stop-color="#1181E8"/>
</linearGradient>
<linearGradient id="paint35_linear_175_7055" x1="960" y1="796.294" x2="960" y2="824.701" gradientUnits="userSpaceOnUse">
<stop stop-color="#003BD2"/>
<stop offset="1" stop-color="#1181E8"/>
</linearGradient>
</defs>
</svg>
